<?xml version="1.0"?>
<svg xmlns="http://www.w3.org/2000/svg" xmlns:xlink="http://www.w3.org/1999/xlink" xmlns:svgjs="http://svgjs.com/svgjs" version="1.1" width="512" height="512" x="0" y="0" viewBox="0 0 480 480" style="enable-background:new 0 0 512 512" xml:space="preserve" class=""><g>
<path xmlns="http://www.w3.org/2000/svg" style="" d="M331.824,196.003c-1.243,3.53-1.413,7.349-0.488,10.976l4.504,17.696l17.6,36.8l37.08,48.344  l19.752,77.52l36.8-17.6L472,353.387v-104h-17.368l-32-8l-24-8l-28-34.096c-1.371-4.084-3.748-7.757-6.912-10.68l-4.376-2.6  c-9.001-5.333-20.621-2.359-25.955,6.642C332.76,193.716,332.235,194.838,331.824,196.003L331.824,196.003z" fill="#fdc9a6" data-original="#fdc9a6"/>
<g xmlns="http://www.w3.org/2000/svg">
	<path style="" d="M425.512,317.387c0,0-32.984,0.152-34.96-7.6" fill="#f6bb92" data-original="#f6bb92"/>
	<path style="" d="M424.568,325.387c-38.296,0-40.904-10.24-41.76-13.6c-1.082-4.284,1.514-8.633,5.798-9.715   c3.554-0.898,7.264,0.736,9.002,3.963c9.057,2.588,18.467,3.727,27.88,3.376c4.418-0.011,8.009,3.562,8.02,7.98   c0.011,4.418-3.562,8.009-7.98,8.02L424.568,325.387z" fill="#f6bb92" data-original="#f6bb92"/>
</g>
<path xmlns="http://www.w3.org/2000/svg" style="" d="M344.632,453.587l46.512-11.848c17.126-4.361,27.475-21.781,23.113-38.907  c0-0.002-0.001-0.003-0.001-0.005l-33.088-129.856c-5.493-21.584-16.523-41.36-32-57.376l-19.248-14.208l-19.752-77.528  l-46.512,11.928l19.744,77.52l-10.096,21.648c-5.925,21.447-6.154,44.069-0.664,65.632l33.08,129.864  c4.365,17.125,21.787,27.469,38.912,23.104" fill="#fbb540" data-original="#fbb540" class=""/>
<path xmlns="http://www.w3.org/2000/svg" style="" d="M272.64,300.587l33.08,129.864c4.365,17.125,21.787,27.469,38.912,23.104l46.512-11.848  c17.126-4.361,27.475-21.781,23.113-38.907c0-0.002-0.001-0.003-0.001-0.005l-33.088-129.824c-0.736-2.896-1.6-5.76-2.528-8.584  H268.8C268.345,276.575,269.638,288.766,272.64,300.587L272.64,300.587z" fill="#f7ba61" data-original="#f7ba61" class=""/>
<path xmlns="http://www.w3.org/2000/svg" style="" d="M411.848,424.763c-78.824,28.192-88.184-15.376-88.184-15.376l-22.16,4.528l4.216,16.552  c4.365,17.125,21.787,27.469,38.912,23.104l46.512-11.848C400.205,439.393,407.779,433.188,411.848,424.763L411.848,424.763z" fill="#182864" data-original="#ea9d2d" class=""/>
<path xmlns="http://www.w3.org/2000/svg" style="" d="M146.808,196.003c1.239,3.531,1.409,7.349,0.488,10.976l-4.512,17.696l-17.6,36.8l-37.088,48.344  l-19.752,77.52l-36.8-17.6L8,353.387v-104h16l32-8l24-8l28-34.096c1.358-4.089,3.724-7.771,6.88-10.704l4.384-2.6  c8.997-5.34,20.62-2.376,25.96,6.621C145.863,193.685,146.393,194.822,146.808,196.003L146.808,196.003z" fill="#fdc9a6" data-original="#fdc9a6"/>
<g xmlns="http://www.w3.org/2000/svg">
	<path style="" d="M53.112,317.387c0,0,32.984,0.152,34.96-7.6" fill="#f6bb92" data-original="#f6bb92"/>
	<path style="" d="M54.064,325.387H53.08c-4.418-0.011-7.991-3.602-7.98-8.02c0.011-4.418,3.602-7.991,8.02-7.98h0.52   c9.248,0.315,18.489-0.824,27.384-3.376c2.079-3.898,6.925-5.373,10.824-3.294c3.255,1.736,4.901,5.473,3.984,9.046   C94.968,315.163,92.352,325.387,54.064,325.387z" fill="#f6bb92" data-original="#f6bb92"/>
</g>
<path xmlns="http://www.w3.org/2000/svg" style="" d="M205.992,300.587l-33.088,129.896c-4.366,17.121-21.781,27.464-38.904,23.104l-46.52-11.848  c-17.125-4.365-27.469-21.787-23.104-38.912l33.08-129.856c5.493-21.584,16.523-41.36,32-57.376l19.256-14.208l19.752-77.528  l46.512,11.928l-19.776,77.48l10.104,21.648C211.241,256.374,211.478,279.009,205.992,300.587L205.992,300.587z" fill="#fbb540" data-original="#fbb540" class=""/>
<path xmlns="http://www.w3.org/2000/svg" style="" d="M97.456,272.971l-33.08,129.856c-4.365,17.125,5.979,34.547,23.104,38.912L134,453.587  c17.123,4.36,34.538-5.983,38.904-23.104l33.088-129.896c2.993-11.834,4.278-24.034,3.816-36.232H100  C99.056,267.177,98.208,270.049,97.456,272.971L97.456,272.971z" fill="#f7ba61" data-original="#f7ba61" class=""/>
<g xmlns="http://www.w3.org/2000/svg">
	<path style="" d="M69.6,429.435c4.326,6.078,10.657,10.435,17.88,12.304L134,453.587   c17.123,4.36,34.538-5.983,38.904-23.104l0.736-2.896l-23.2-10.08C150.44,417.507,146.12,449.987,69.6,429.435z" fill="#182864" data-original="#ea9d2d" class=""/>
	<path style="" d="M95.978,278.791l108.534,27.651l-27.651,108.534L68.328,387.325L95.978,278.791z" fill="#182864" data-original="#ea9d2d" class=""/>
</g>
<path xmlns="http://www.w3.org/2000/svg" style="" d="M160.707,121.886l7.9-31.01l62.019,15.8l-7.9,31.01L160.707,121.886z" fill="#fbb540" data-original="#fbb540" class=""/>
<g xmlns="http://www.w3.org/2000/svg">
	<path style="" d="M202.4,371.187c-1.997-0.003-3.986-0.256-5.92-0.752l-15.512-3.944   c-12.846-3.267-20.611-16.33-17.344-29.176s16.33-20.611,29.176-17.344l15.504,3.952c12.848,3.257,20.623,16.314,17.366,29.162   c-2.702,10.657-12.3,18.116-23.294,18.102H202.4z" fill="#fdc9a6" data-original="#fdc9a6"/>
	<path style="" d="M194.528,402.187c-2.016-0.004-4.023-0.259-5.976-0.76l-15.496-3.944   c-12.93-2.918-21.046-15.765-18.128-28.695s15.765-21.046,28.695-18.128c0.43,0.097,0.857,0.206,1.281,0.326l15.504,3.944   c12.853,3.24,20.646,16.286,17.406,29.138c-2.689,10.667-12.285,18.14-23.286,18.134L194.528,402.187z" fill="#fdc9a6" data-original="#fdc9a6"/>
	<path style="" d="M186.576,433.211c-1.997-0.003-3.986-0.256-5.92-0.752l-15.504-3.952   c-12.826-3.345-20.512-16.453-17.168-29.279c3.319-12.726,16.261-20.411,29.024-17.233l15.496,3.944   c12.853,3.24,20.646,16.285,17.406,29.138C207.217,425.762,197.595,433.24,186.576,433.211L186.576,433.211z" fill="#fdc9a6" data-original="#fdc9a6"/>
	<path style="" d="M210.28,340.179c-1.997-0.003-3.986-0.256-5.92-0.752l-15.512-3.952   c-12.862-3.203-20.692-16.227-17.488-29.089c3.203-12.862,16.227-20.692,29.089-17.488c0.085,0.021,0.171,0.043,0.256,0.065   l15.504,3.952c12.848,3.257,20.623,16.314,17.366,29.162C230.872,332.734,221.274,340.193,210.28,340.179L210.28,340.179z" fill="#fdc9a6" data-original="#fdc9a6"/>
</g>
<path xmlns="http://www.w3.org/2000/svg" style="" d="M168.463,123.889l46.514,11.85l-11.85,46.514l-46.514-11.85L168.463,123.889z" fill="#182864" data-original="#744630" class=""/>
<path xmlns="http://www.w3.org/2000/svg" style="" d="M410.332,387.326l-108.534,27.651l-27.651-108.534l108.534-27.651L410.332,387.326z" fill="#182864" data-original="#ea9d2d" class=""/>
<path xmlns="http://www.w3.org/2000/svg" style="" d="M248.002,106.713l62.019-15.8l7.9,31.01l-62.019,15.8L248.002,106.713z" fill="#fbb540" data-original="#fbb540" class=""/>
<g xmlns="http://www.w3.org/2000/svg">
	<path style="" d="M276.248,371.187c-13.255,0.012-24.01-10.723-24.022-23.978   c-0.01-10.991,7.448-20.585,18.102-23.286l15.496-3.952c12.846-3.272,25.912,4.49,29.184,17.336s-4.49,25.912-17.336,29.184   l-15.504,3.944C280.234,370.931,278.245,371.184,276.248,371.187L276.248,371.187z" fill="#fdc9a6" data-original="#fdc9a6"/>
	<path style="" d="M284.096,402.187c-13.255,0.008-24.006-10.731-24.014-23.986c-0.006-11,7.467-20.597,18.134-23.286   l15.504-3.944c12.848-3.281,25.923,4.476,29.204,17.324s-4.476,25.923-17.324,29.204l-15.512,3.944   C288.13,401.941,286.117,402.191,284.096,402.187z" fill="#fdc9a6" data-original="#fdc9a6"/>
	<path style="" d="M292.048,433.211c-13.255,0.034-24.028-10.683-24.062-23.938   c-0.028-11.019,7.45-20.641,18.134-23.334l15.512-3.944c12.879-3.135,25.861,4.763,28.996,17.642   c3.088,12.686-4.531,25.513-17.148,28.87l-15.512,3.952C296.034,432.955,294.045,433.208,292.048,433.211L292.048,433.211z" fill="#fdc9a6" data-original="#fdc9a6"/>
	<path style="" d="M268.36,340.179c-10.973-0.014-20.546-7.451-23.272-18.08c-3.275-12.839,4.475-25.903,17.312-29.184   l15.504-3.952c12.826-3.345,25.935,4.341,29.28,17.167c3.345,12.826-4.341,25.935-17.167,29.28   c-0.085,0.022-0.171,0.044-0.256,0.065l-15.504,3.952C272.33,339.923,270.349,340.175,268.36,340.179L268.36,340.179z" fill="#fdc9a6" data-original="#fdc9a6"/>
</g>
<path xmlns="http://www.w3.org/2000/svg" style="" d="M322.021,170.402l-46.514,11.85l-11.85-46.514l46.514-11.85L322.021,170.402z" fill="#182864" data-original="#744630" class=""/>
<g xmlns="http://www.w3.org/2000/svg">
	<path style="" d="M232,17.387h16v32h-16V17.387z" fill="#182864" data-original="#ea9d2d" class=""/>
	<path style="" d="M176.81,39.277l10.704-11.892l23.784,21.408l-10.704,11.892L176.81,39.277z" fill="#182864" data-original="#ea9d2d" class=""/>
	<path style="" d="M272.812,48.795l23.784-21.408L307.3,39.279l-23.784,21.408L272.812,48.795z" fill="#182864" data-original="#ea9d2d" class=""/>
</g>
<g xmlns="http://www.w3.org/2000/svg">
	<g>
		<path id="SVGCleanerId_0" style="" d="M424,81.387h16v16h-16V81.387z" fill="#f7ba61" data-original="#f7ba61" class=""/>
	</g>
	<path id="SVGCleanerId_6" style="" d="M424,129.387h16v16h-16V129.387z" fill="#f7ba61" data-original="#f7ba61" class=""/>
	<g>
		<path id="SVGCleanerId_1" style="" d="M448,105.387h16v16h-16V105.387z" fill="#f7ba61" data-original="#f7ba61" class=""/>
	</g>
	<path id="SVGCleanerId_7" style="" d="M400,105.387h16v16h-16V105.387z" fill="#f7ba61" data-original="#f7ba61" class=""/>
	<g>
		<path id="SVGCleanerId_0_1_" style="" d="M424,81.387h16v16h-16V81.387z" fill="#f7ba61" data-original="#f7ba61" class=""/>
	</g>
	<g>
		<path id="SVGCleanerId_6_1_" style="" d="M424,129.387h16v16h-16V129.387z" fill="#f7ba61" data-original="#f7ba61" class=""/>
	</g>
	<g>
		<path id="SVGCleanerId_1_1_" style="" d="M448,105.387h16v16h-16V105.387z" fill="#f7ba61" data-original="#f7ba61" class=""/>
	</g>
	<g>
		<path id="SVGCleanerId_7_1_" style="" d="M400,105.387h16v16h-16V105.387z" fill="#f7ba61" data-original="#f7ba61" class=""/>
	</g>
	<g>
		<path id="SVGCleanerId_2" style="" d="M40,33.387h16v16H40V33.387z" fill="#f7ba61" data-original="#f7ba61" class=""/>
	</g>
	<g>
		<path id="SVGCleanerId_3" style="" d="M40,65.387h16v16H40V65.387z" fill="#f7ba61" data-original="#f7ba61" class=""/>
	</g>
	<g>
		<path id="SVGCleanerId_4" style="" d="M56,49.387h16v16H56V49.387z" fill="#f7ba61" data-original="#f7ba61" class=""/>
	</g>
	<g>
		<path id="SVGCleanerId_5" style="" d="M24,49.387h16v16H24V49.387z" fill="#f7ba61" data-original="#f7ba61" class=""/>
	</g>
</g>
<g xmlns="http://www.w3.org/2000/svg">
	<path style="" d="M168.464,123.891L163,144.883l46.48,12.416l5.496-21.552L168.464,123.891z" fill="#303e74" data-original="#5b3726" class=""/>
	<path style="" d="M263.656,135.747l46.512-11.856l5.496,21.496l-46.744,11.024L263.656,135.747z" fill="#303e74" data-original="#5b3726" class=""/>
</g>
<g xmlns="http://www.w3.org/2000/svg">
	<path style="" d="M223.792,336.315c0,0-15.352,9.776-25.072,1.672c2.393,11.123,13.349,18.2,24.471,15.807   c0.83-0.178,1.647-0.408,2.449-0.687C227.49,347.507,226.816,341.379,223.792,336.315L223.792,336.315z" fill="#f6bb92" data-original="#f6bb92"/>
	<path style="" d="M255.064,336.315c0,0,15.352,9.776,25.072,1.672c-2.393,11.123-13.349,18.2-24.471,15.807   c-0.83-0.178-1.647-0.408-2.449-0.687C251.361,347.507,252.036,341.378,255.064,336.315L255.064,336.315z" fill="#f6bb92" data-original="#f6bb92"/>
	<path style="" d="M263.064,367.395c0,0,15.352,9.768,25.072,1.672c-2.391,11.118-13.342,18.194-24.461,15.803   c-0.833-0.179-1.655-0.41-2.459-0.691C259.362,378.582,260.036,372.455,263.064,367.395L263.064,367.395z" fill="#f6bb92" data-original="#f6bb92"/>
	<path style="" d="M270.872,398.403c0,0,15.352,9.768,25.072,1.672c-2.391,11.118-13.342,18.194-24.461,15.803   c-0.833-0.179-1.655-0.41-2.459-0.691C267.17,409.59,267.844,403.463,270.872,398.403L270.872,398.403z" fill="#f6bb92" data-original="#f6bb92"/>
	<path style="" d="M217.368,385.155c0.104-0.36,0.28-0.68,0.376-1.04c1.492-5.86,0.694-12.068-2.232-17.36   c-0.166,0.046-0.329,0.102-0.488,0.168c0,0-14.584,11.2-24.304,3.064c2.398,11.108,13.347,18.168,24.455,15.77   C215.917,385.597,216.649,385.396,217.368,385.155L217.368,385.155z" fill="#f6bb92" data-original="#f6bb92"/>
	<path style="" d="M209.832,415.131c1.407-5.552,0.756-11.426-1.832-16.536c-0.329,0.071-0.649,0.181-0.952,0.328   c0,0-14.584,11.2-24.304,3.064c2.407,11.092,13.35,18.134,24.442,15.727c0.661-0.143,1.314-0.319,1.958-0.527   C209.36,416.507,209.656,415.851,209.832,415.131z" fill="#f6bb92" data-original="#f6bb92"/>
</g>
<path xmlns="http://www.w3.org/2000/svg" d="M232.6,98.987l-62.016-15.792c-4.279-1.092-8.633,1.49-9.728,5.768l-7.896,31.008c-1.091,4.281,1.495,8.637,5.776,9.728  l-9.88,38.768l-3.256,12.832c-8.627-7.148-20.845-8.02-30.4-2.168l-4.368,2.6c-4.331,3.188-7.601,7.606-9.384,12.68l-26.168,32.12  l-21.216,7.096l-31.048,7.76H8c-4.418,0-8,3.582-8,8v104c0.001,2.625,1.289,5.082,3.448,6.576l23.536,16.312  c0.344,0.246,0.711,0.457,1.096,0.632l30.88,14.8l-2.336,9.152c-5.451,21.404,7.478,43.175,28.88,48.632L132,461.339  c3.225,0.829,6.542,1.249,9.872,1.248c18.279-0.027,34.224-12.42,38.76-30.128c12.779,3.316,25.826-4.356,29.141-17.135  c1.507-5.809,0.774-11.972-2.053-17.265c10.292-6.711,13.731-20.186,7.912-31.008c10.28-6.721,13.712-20.187,7.904-31.008  c11.017-7.306,14.026-22.16,6.72-33.177c-3.288-4.958-8.305-8.515-14.072-9.975l-0.408-0.104c3.54-19.957,2.597-40.452-2.76-60  c-0.118-0.429-0.273-0.847-0.464-1.248l-8.888-19.064l17.064-67c0.646,0.166,1.309,0.249,1.976,0.248  c3.657,0,6.849-2.48,7.752-6.024l7.896-31.016C239.424,104.42,236.856,100.09,232.6,98.987L232.6,98.987z M174.392,100.667  l46.504,11.856l-3.952,15.504l-46.504-11.848L174.392,100.667z M181.528,292.371l-75.76-19.304  c5.246-19.278,15.216-36.945,29.008-51.4l18.688-13.776c1.485-1.097,2.545-2.674,3-4.464l5.92-23.256l31.016,7.896l-5.92,23.256  c-0.464,1.79-0.289,3.686,0.496,5.36l9.816,21.032c4.431,16.704,5.214,34.166,2.296,51.2c-6.394-1.465-13.11-0.226-18.56,3.424  L181.528,292.371z M209.264,343.131c2.252,3.801,0.995,8.708-2.806,10.96c-1.82,1.078-3.992,1.391-6.042,0.872l-15.512-3.976  c-4.282-1.087-6.873-5.44-5.786-9.722c0.524-2.064,1.849-3.834,3.682-4.918c1.816-1.094,3.997-1.408,6.048-0.872l15.512,3.952  c2.061,0.517,3.827,1.84,4.904,3.672L209.264,343.131z M201.368,374.139c2.253,3.8,0.999,8.706-2.8,10.96  c-1.826,1.084-4.007,1.397-6.064,0.872l-15.496-3.944c-4.287-1.071-6.894-5.413-5.823-9.7c0.005-0.02,0.01-0.04,0.015-0.06  c0.525-2.057,1.846-3.821,3.672-4.904c1.228-0.736,2.632-1.126,4.064-1.128c0.675,0.002,1.346,0.088,2,0.256l15.504,3.944  c2.068,0.514,3.844,1.837,4.928,3.672L201.368,374.139z M163.624,337.339c-1.442,5.743-0.695,11.817,2.096,17.04  c-10.28,6.721-13.712,20.187-7.904,31.008c-4.95,3.248-8.51,8.226-9.984,13.96l-69.776-17.776l16.624-65.24l1.16-4.536l5.92-23.256  l69.768,17.768c-1.454,5.744-0.709,11.824,2.088,17.048c-4.947,3.245-8.509,8.216-9.992,13.944L163.624,337.339z M189.744,137.611  l15.504,3.952l-7.896,31.008l-31.016-7.896l7.896-31.016L189.744,137.611z M16,349.203v-91.816h8c0.653,0.001,1.303-0.08,1.936-0.24  l32.592-8.176l24-8c1.43-0.474,2.697-1.342,3.656-2.504l28-34.096c0.402-0.492,0.746-1.029,1.024-1.6l0.8-1.672  c0.792-1.971,1.798-3.849,3-5.6l4.384-2.608c5.182-3.086,11.884-1.387,14.97,3.794c0.342,0.574,0.631,1.179,0.862,1.806  l-14.456,10.656c-0.355,0.264-0.69,0.556-1,0.872c-16.443,17.019-28.167,38.03-34.016,60.96l-1.48,5.816L80.8,306.131  c-8.824,2.447-17.967,3.55-27.12,3.272c-0.168,0-0.16,0-0.52,0c-4.418-0.011-8.009,3.562-8.02,7.98  c-0.011,4.418,3.562,8.009,7.98,8.02h0.984c7.429,0.098,14.854-0.437,22.192-1.6l-5.28,20.696l-8,31.392l-27.448-13.128L16,349.203z   M136,445.843l-46.512-11.856c-12.843-3.271-20.604-16.332-17.336-29.176l1.976-7.76l75.8,19.32c0.2,0.368,0.32,0.8,0.536,1.136  c3.237,5.485,8.535,9.447,14.712,11C161.905,441.35,148.844,449.111,136,445.843L136,445.843z M194.4,411.179  c-0.525,2.057-1.846,3.821-3.672,4.904c-1.826,1.075-4.001,1.388-6.056,0.872l-15.504-3.952c-4.281-1.091-6.867-5.447-5.776-9.728  c1.091-4.281,5.447-6.867,9.728-5.776l15.496,3.944c4.283,1.086,6.874,5.439,5.788,9.721  C194.402,411.169,194.401,411.174,194.4,411.179z M217.232,312.091c2.253,3.801,0.998,8.708-2.802,10.961  c-1.823,1.081-4,1.394-6.054,0.871l-15.576-3.952c-4.282-1.087-6.873-5.44-5.785-9.723c0-0.002,0.001-0.004,0.001-0.005  c1.091-4.281,5.447-6.867,9.728-5.776l15.504,3.952c2.066,0.515,3.838,1.838,4.92,3.672H217.232z" fill="#000000" data-original="#000000" style="" class=""/>
<path xmlns="http://www.w3.org/2000/svg" d="M472,241.387h-16.392l-30.448-7.584l-21.816-7.272l-25.856-31.544l-0.304-0.64c-1.787-5.05-5.044-9.449-9.352-12.632  l-4.376-2.592c-9.551-5.864-21.777-4.992-30.4,2.168l-3.28-12.872l-9.88-38.768c4.281-1.091,6.867-5.447,5.776-9.728l-7.904-31.008  c-1.095-4.278-5.449-6.86-9.728-5.768l-62.016,15.84c-4.281,1.091-6.867,5.447-5.776,9.728l7.904,31.016  c1.091,4.277,5.441,6.862,9.72,5.776l9.872,38.76l7.2,28.216l-8.888,19.064c-0.191,0.401-0.346,0.819-0.464,1.248  c-5.361,19.547-6.304,40.043-2.76,60l-0.416,0.104c-12.806,3.209-20.586,16.191-17.378,28.997  c1.456,5.81,5.039,10.861,10.042,14.155c-5.814,10.819-2.384,24.287,7.896,31.008c-5.816,10.825-2.378,24.3,7.912,31.016  c-6.205,11.663-1.781,26.147,9.882,32.352c5.276,2.807,11.411,3.537,17.198,2.048c5.43,21.391,27.173,34.33,48.564,28.899  c0.025-0.006,0.051-0.013,0.076-0.019l46.52-11.848c21.402-5.457,34.331-27.228,28.88-48.632l-2.336-9.16l30.872-14.792  c0.324-0.149,0.636-0.32,0.936-0.512l24.904-16.312c2.262-1.482,3.623-4.007,3.616-6.712v-104  C480,244.969,476.418,241.387,472,241.387L472,241.387z M330.808,399.331c-1.493-5.728-5.059-10.697-10.008-13.944  c5.812-10.825,2.375-24.297-7.912-31.016c5.818-10.818,2.387-24.29-7.896-31.008c2.797-5.221,3.542-11.298,2.088-17.04  l69.768-17.776l23.704,93.032L330.808,399.331z M286.12,385.939c-4.287,1.068-8.628-1.542-9.696-5.83  c-1.059-4.254,1.502-8.568,5.744-9.674l15.504-3.944c0.651-0.168,1.32-0.254,1.992-0.256c4.418-0.013,8.01,3.558,8.023,7.977  c0.011,3.678-2.488,6.889-6.055,7.783L286.12,385.939z M272.168,354.059c-3.8-2.254-5.053-7.162-2.799-10.962  c1.083-1.825,2.846-3.145,4.903-3.67l15.504-3.952c4.284-1.089,8.639,1.5,9.728,5.784s-1.5,8.639-5.784,9.728l-15.504,3.944  C276.164,355.452,273.989,355.139,272.168,354.059z M297.112,292.331c-5.445-3.669-12.166-4.923-18.568-3.464  c-2.926-17.033-2.143-34.497,2.296-51.2l9.816-21.032c0.782-1.675,0.96-3.569,0.504-5.36l-5.928-23.256l31.008-7.896l5.928,23.256  c0.45,1.792,1.511,3.371,3,4.464l18.68,13.776c13.801,14.45,23.774,32.118,29.016,51.4L297.112,292.331z M304.392,133.619  l7.896,31.016l-31.008,7.896l-7.896-31.008l15.504-3.952L304.392,133.619z M304.24,100.635l3.952,15.512l-46.512,11.848  l-3.952-15.504L304.24,100.635z M261.464,312.091c1.075-1.833,2.842-3.157,4.904-3.672l15.504-3.952  c4.287-1.068,8.628,1.542,9.696,5.83c1.059,4.254-1.502,8.568-5.744,9.674l-15.496,3.952c-4.28,1.096-8.638-1.486-9.734-5.766  C260.068,316.1,260.38,313.918,261.464,312.091L261.464,312.091z M287.96,416.091c-3.803-2.249-5.063-7.155-2.814-10.958  c1.084-1.833,2.854-3.158,4.918-3.682l15.512-3.944c4.263-1.16,8.66,1.355,9.82,5.618s-1.355,8.66-5.618,9.82  c-0.086,0.023-0.172,0.045-0.258,0.066l-15.504,3.952c-2.056,0.521-4.234,0.204-6.056-0.88V416.091z M403.88,422.995  c-3.237,5.485-8.535,9.447-14.712,11l-46.512,11.856c-12.844,3.273-25.91-4.487-29.183-17.331c0-0.002-0.001-0.003-0.001-0.005  c6.174-1.556,11.468-5.517,14.704-11c0.224-0.368,0.344-0.8,0.536-1.136l75.808-19.32l1.976,7.76  c1.592,6.162,0.65,12.705-2.616,18.168L403.88,422.995z M464,349.067l-20.8,13.648l-27.512,13.176l-6.976-27.384l-6.312-24.72  c7.338,1.163,14.763,1.698,22.192,1.6h0.984c4.418-0.011,7.991-3.602,7.98-8.02c-0.011-4.418-3.602-7.991-8.02-7.98  c-9.318,0.315-18.63-0.788-27.616-3.272l-7.52-29.296l-1.48-5.816c-5.851-22.932-17.578-43.942-34.024-60.96  c-0.31-0.316-0.645-0.608-1-0.872l-14.448-10.664c2.082-5.655,8.355-8.552,14.01-6.47c0.633,0.233,1.243,0.524,1.822,0.87  l4.216,2.48c1.286,1.75,2.345,3.656,3.152,5.672l0.8,1.704c0.271,0.575,0.615,1.113,1.024,1.6l28,34.096  c0.958,1.165,2.225,2.036,3.656,2.512l24.592,8.176l32,8c0.633,0.16,1.283,0.241,1.936,0.24H464V349.067z" fill="#000000" data-original="#000000" style="" class=""/>
<path xmlns="http://www.w3.org/2000/svg" d="M232,17.387h16v32h-16V17.387z" fill="#000000" data-original="#000000" style="" class=""/>
<path xmlns="http://www.w3.org/2000/svg" d="M176.81,39.277l10.704-11.892l23.784,21.408l-10.704,11.892L176.81,39.277z" fill="#000000" data-original="#000000" style="" class=""/>
<path xmlns="http://www.w3.org/2000/svg" d="M272.812,48.795l23.784-21.408L307.3,39.279l-23.784,21.408L272.812,48.795z" fill="#000000" data-original="#000000" style="" class=""/>
<g xmlns="http://www.w3.org/2000/svg">
	<path id="SVGCleanerId_0_2_" d="M424,81.387h16v16h-16V81.387z" fill="#000000" data-original="#000000" style="" class=""/>
</g>
<path xmlns="http://www.w3.org/2000/svg" d="M424,129.387h16v16h-16V129.387z" fill="#000000" data-original="#000000" style="" class=""/>
<g xmlns="http://www.w3.org/2000/svg">
	<path id="SVGCleanerId_1_2_" d="M448,105.387h16v16h-16V105.387z" fill="#000000" data-original="#000000" style="" class=""/>
</g>
<path xmlns="http://www.w3.org/2000/svg" d="M400,105.387h16v16h-16V105.387z" fill="#000000" data-original="#000000" style="" class=""/>
<path xmlns="http://www.w3.org/2000/svg" id="SVGCleanerId_2_1_" d="M40,33.387h16v16H40V33.387z" fill="#000000" data-original="#000000" style="" class=""/>
<path xmlns="http://www.w3.org/2000/svg" id="SVGCleanerId_3_1_" d="M40,65.387h16v16H40V65.387z" fill="#000000" data-original="#000000" style="" class=""/>
<path xmlns="http://www.w3.org/2000/svg" id="SVGCleanerId_4_1_" d="M56,49.387h16v16H56V49.387z" fill="#000000" data-original="#000000" style="" class=""/>
<path xmlns="http://www.w3.org/2000/svg" id="SVGCleanerId_5_1_" d="M24,49.387h16v16H24V49.387z" fill="#000000" data-original="#000000" style="" class=""/>
<g xmlns="http://www.w3.org/2000/svg">
</g>
<g xmlns="http://www.w3.org/2000/svg">
</g>
<g xmlns="http://www.w3.org/2000/svg">
</g>
<g xmlns="http://www.w3.org/2000/svg">
</g>
<g xmlns="http://www.w3.org/2000/svg">
</g>
<g xmlns="http://www.w3.org/2000/svg">
</g>
<g xmlns="http://www.w3.org/2000/svg">
</g>
<g xmlns="http://www.w3.org/2000/svg">
</g>
<g xmlns="http://www.w3.org/2000/svg">
</g>
<g xmlns="http://www.w3.org/2000/svg">
</g>
<g xmlns="http://www.w3.org/2000/svg">
</g>
<g xmlns="http://www.w3.org/2000/svg">
</g>
<g xmlns="http://www.w3.org/2000/svg">
</g>
<g xmlns="http://www.w3.org/2000/svg">
</g>
<g xmlns="http://www.w3.org/2000/svg">
</g>
</g></svg>
