<?xml version="1.0" encoding="UTF-8"?>
<svg xmlns="http://www.w3.org/2000/svg" xmlns:xlink="http://www.w3.org/1999/xlink" width="375pt" height="374.999991pt" viewBox="0 0 375 374.999991" version="1.2">
<defs>
<clipPath id="clip1">
  <path d="M 6.9375 27 L 369.632812 27 L 369.632812 350.226562 L 6.9375 350.226562 Z M 6.9375 27 "/>
</clipPath>
</defs>
<g id="surface1">
<g clip-path="url(#clip1)" clip-rule="nonzero">
<path style=" stroke:none;fill-rule:nonzero;fill:rgb(7.839966%,12.939453%,23.919678%);fill-opacity:1;" d="M 92.050781 160.636719 L 92.039062 160.679688 L 91.972656 160.78125 C 91.066406 162.164062 89.222656 165.035156 87.070312 168.714844 L 85.824219 170.847656 L 85.714844 168.378906 C 85.535156 164.21875 85.761719 161.261719 86.4375 159.078125 L 86.515625 158.816406 L 86.742188 158.671875 C 88.484375 157.574219 90.425781 156.472656 92.308594 155.410156 C 93.554688 154.703125 94.785156 154.011719 95.914062 153.335938 L 96.757812 154.515625 C 94.980469 156.035156 93.40625 158.078125 92.050781 160.636719 Z M 305.636719 171.140625 C 291.089844 162.496094 269.722656 163.359375 252.871094 164.695312 C 252.871094 163.949219 252.796875 163.335938 252.625 162.878906 C 251.039062 158.617188 243.75 161.328125 239.660156 159.066406 C 235.566406 156.804688 228.898438 149.03125 227.714844 149.550781 C 226.980469 149.871094 218.382812 151.414062 218.375 151.417969 C 218.375 151.417969 218.378906 151.425781 218.382812 151.4375 C 218.40625 151.488281 218.492188 151.695312 218.621094 152.03125 C 218.632812 152.054688 218.644531 152.082031 218.652344 152.109375 C 218.5625 152.121094 218.507812 152.132812 218.503906 152.132812 L 218.289062 152.171875 L 217.949219 152.304688 C 217.941406 152.285156 217.699219 151.683594 217.699219 151.683594 C 216.851562 149.535156 216.089844 147.242188 215.441406 144.878906 L 215.25 144.171875 L 215.957031 143.984375 C 221.289062 142.570312 233.886719 138.078125 235.734375 126.847656 L 235.761719 126.660156 L 235.882812 126.511719 C 245.875 113.960938 245.164062 88.449219 243.777344 80.582031 C 243.601562 79.664062 243.4375 78.703125 243.269531 77.71875 C 241.976562 70.261719 240.371094 60.984375 233.425781 56.644531 L 232.792969 56.25 L 233.207031 55.625 C 236.925781 49.980469 237.667969 44.988281 235.410156 40.792969 C 230.394531 31.46875 211.511719 27.21875 196.089844 27.21875 C 193.082031 27.21875 190.339844 27.398438 188.167969 27.738281 C 186.769531 27.984375 185.339844 28.230469 183.878906 28.480469 C 164.179688 31.84375 139.660156 36.039062 126.570312 52.40625 C 123.554688 56.175781 114.375 67.65625 120.457031 75.402344 C 122.082031 77.355469 124.820312 78.582031 128.824219 79.15625 L 129.835938 79.300781 L 129.363281 80.210938 C 122.035156 94.304688 121.238281 112.144531 121.871094 124.699219 C 121.84375 124.703125 121.820312 124.714844 121.792969 124.722656 C 121.574219 124.78125 121.359375 124.847656 121.152344 124.921875 C 120 125.324219 119.042969 125.9375 118.277344 126.695312 C 118.273438 126.699219 118.273438 126.699219 118.273438 126.703125 C 116.996094 127.964844 116.238281 129.617188 115.964844 131.34375 C 115.8125 132.347656 115.816406 133.371094 115.976562 134.363281 C 115.976562 134.363281 115.976562 134.363281 115.976562 134.367188 C 116.015625 134.609375 116.0625 134.84375 116.121094 135.078125 C 116.121094 135.085938 116.121094 135.089844 116.125 135.089844 C 116.183594 135.324219 116.246094 135.554688 116.320312 135.777344 C 116.324219 135.785156 116.328125 135.789062 116.332031 135.796875 C 116.402344 136.019531 116.484375 136.238281 116.578125 136.453125 C 116.582031 136.460938 116.585938 136.46875 116.589844 136.472656 C 116.679688 136.6875 116.777344 136.894531 116.886719 137.097656 C 116.890625 137.105469 116.898438 137.113281 116.902344 137.121094 C 117.011719 137.320312 117.128906 137.515625 117.253906 137.703125 C 117.253906 137.714844 117.261719 137.722656 117.269531 137.730469 C 117.394531 137.917969 117.527344 138.097656 117.667969 138.269531 C 117.671875 138.277344 117.683594 138.285156 117.6875 138.296875 C 117.828125 138.46875 117.980469 138.632812 118.140625 138.792969 C 118.144531 138.796875 118.148438 138.804688 118.15625 138.808594 C 118.316406 138.96875 118.484375 139.117188 118.660156 139.261719 C 118.664062 139.265625 118.667969 139.265625 118.671875 139.269531 C 118.851562 139.410156 119.039062 139.546875 119.234375 139.667969 C 119.238281 139.671875 119.238281 139.671875 119.242188 139.671875 C 120.234375 140.296875 121.433594 140.652344 122.828125 140.625 C 123.066406 140.617188 123.308594 140.609375 123.554688 140.578125 C 124.207031 144.578125 125.011719 148.488281 125.957031 152.203125 L 126.382812 153.894531 L 124.882812 153.007812 C 124.542969 152.808594 124.253906 152.609375 123.984375 152.421875 C 123.289062 151.941406 122.867188 151.648438 122.003906 151.648438 C 121.464844 151.648438 120.777344 151.765625 119.917969 152.007812 L 119.53125 152.203125 C 118.574219 152.699219 117.671875 153.164062 116.453125 153.164062 C 116.121094 153.164062 115.789062 153.128906 115.40625 153.050781 C 114.59375 152.847656 113.945312 152.238281 113.316406 151.648438 C 112.707031 151.078125 112.078125 150.488281 111.382812 150.347656 C 111.125 150.300781 110.875 150.277344 110.632812 150.277344 C 109.335938 150.277344 108.429688 150.988281 107.472656 151.738281 C 106.472656 152.523438 105.335938 153.414062 103.714844 153.414062 C 102.738281 153.414062 102.175781 153.046875 101.722656 152.753906 C 101.34375 152.503906 101.09375 152.339844 100.59375 152.339844 C 100.46875 152.339844 100.332031 152.351562 100.183594 152.375 C 100.054688 152.425781 99.914062 152.488281 99.765625 152.554688 L 99.03125 151.3125 C 100.878906 149.941406 101.042969 149.285156 101.027344 149.066406 C 100.863281 146.679688 97.753906 145.589844 94.933594 145.589844 C 94.023438 145.589844 93.105469 145.703125 92.296875 145.902344 C 91.394531 146.160156 90.433594 146.414062 89.445312 146.679688 C 82.632812 148.480469 74.910156 150.523438 73.671875 156.683594 C 73.289062 160.140625 72.378906 171.222656 73.214844 176.628906 L 73.371094 177.648438 L 72.355469 177.449219 C 71.34375 177.253906 70.398438 177.15625 69.554688 177.15625 C 66.191406 177.15625 64.089844 178.710938 63.140625 181.882812 C 62.765625 183.371094 62.621094 185.277344 62.734375 187.113281 L 62.773438 187.667969 L 62.246094 187.847656 C 58.714844 189.039062 56.0625 192.363281 55.144531 196.738281 C 54.300781 200.761719 55.160156 204.636719 57.328125 206.609375 L 58.230469 207.429688 C 58.203125 207.449219 58.175781 207.460938 58.15625 207.484375 C 58.058594 207.59375 58.015625 207.738281 58.03125 207.875 L 56.839844 207.875 C 55.046875 207.875 53.519531 208.660156 52.53125 210.085938 C 51.464844 211.625 51.230469 213.640625 51.90625 215.488281 C 52.886719 217.164062 55.296875 219.113281 58.886719 221.136719 C 58.886719 221.136719 57.816406 223.792969 54.816406 227.894531 C 51.386719 232.585938 46.769531 238.644531 43.847656 241.964844 C 41.609375 244.5 39.496094 246.898438 37.65625 249.167969 C 35.496094 251.765625 33.191406 254.394531 30.960938 256.9375 C 19.75 269.734375 8.15625 282.964844 6.984375 300.234375 C 6.097656 313.453125 17.394531 337.535156 36.429688 343.707031 C 38.890625 344.503906 41.59375 344.910156 44.476562 344.910156 C 46.003906 344.910156 47.601562 344.792969 49.296875 344.5625 C 51.273438 344.484375 53.578125 344.195312 56.132812 343.742188 C 53.859375 344.445312 51.578125 344.972656 49.320312 345.285156 C 72.113281 344.40625 136.957031 316.207031 140.695312 320.691406 C 144.5 326.785156 149.144531 342.621094 157.980469 343.316406 C 166.816406 344.003906 273.949219 353.390625 302.464844 349.113281 C 316.195312 347.078125 368.066406 344.535156 369.59375 314.511719 C 371.117188 284.492188 330.675781 186.015625 305.636719 171.140625 "/>
</g>
<path style=" stroke:none;fill-rule:nonzero;fill:rgb(77.648926%,48.239136%,32.939148%);fill-opacity:1;" d="M 84.386719 195.71875 C 83.929688 195.464844 81.675781 194.191406 80.484375 193.515625 C 78.828125 192.6875 77.121094 192 75.460938 191.339844 C 75.097656 191.1875 74.722656 191.027344 74.335938 190.867188 C 71.695312 189.753906 68.703125 188.492188 65.992188 188.492188 C 65.710938 188.492188 65.480469 188.261719 65.480469 187.980469 C 65.480469 187.703125 65.710938 187.472656 65.992188 187.472656 C 68.90625 187.472656 72.003906 188.78125 74.734375 189.929688 C 75.113281 190.089844 75.484375 190.25 75.847656 190.394531 C 77.519531 191.0625 79.25 191.753906 80.964844 192.613281 C 82.179688 193.304688 84.476562 194.574219 84.890625 194.832031 C 85.296875 195.085938 84.84375 195.980469 84.386719 195.71875 Z M 75.136719 221.484375 C 74.800781 223.492188 74.003906 224.890625 72.75 225.644531 C 71.945312 226.132812 71.019531 226.328125 70.011719 226.328125 C 68.195312 226.328125 66.085938 225.699219 63.796875 224.933594 C 62.890625 224.542969 59.515625 222.917969 59.058594 222.644531 C 58.597656 222.375 58.546875 221.988281 58.703125 221.753906 C 58.855469 221.519531 59.269531 221.609375 59.507812 221.734375 C 59.753906 221.847656 63.289062 223.609375 64.160156 223.980469 C 66.683594 224.824219 70.199219 225.996094 72.226562 224.773438 C 73.222656 224.167969 73.847656 223.042969 74.132812 221.3125 C 75.097656 216.023438 73.160156 213.28125 73.136719 213.261719 C 72.976562 213.027344 73.019531 212.714844 73.253906 212.546875 C 73.476562 212.378906 73.792969 212.429688 73.960938 212.65625 C 74.054688 212.773438 76.183594 215.738281 75.136719 221.484375 Z M 58.195312 208.207031 C 57.984375 208.015625 57.96875 207.6875 58.15625 207.484375 C 58.347656 207.273438 58.664062 207.261719 58.878906 207.449219 C 60.335938 208.78125 63.164062 209.480469 65.449219 210.046875 C 65.917969 210.164062 66.375 210.273438 66.800781 210.386719 C 67.070312 210.460938 67.238281 210.738281 67.164062 211.011719 C 67.101562 211.238281 66.894531 211.390625 66.667969 211.390625 C 66.625 211.390625 66.582031 211.386719 66.539062 211.371094 C 66.125 211.261719 65.671875 211.144531 65.199219 211.035156 C 62.816406 210.4375 59.84375 209.703125 58.195312 208.207031 Z M 98.109375 193.804688 C 98.171875 192.757812 97.261719 191.339844 95.488281 189.339844 C 92.433594 186.285156 88.878906 183.742188 85.320312 181.703125 C 84.761719 181.449219 84.136719 181.152344 83.488281 180.847656 C 85.398438 180.117188 86.867188 179.101562 86.96875 177.800781 C 87.207031 174.816406 85.425781 164.824219 87.128906 159.289062 C 93.242188 155.429688 101.925781 151.554688 101.753906 149.015625 C 101.507812 145.453125 96.164062 144.183594 92.09375 145.203125 C 84.976562 147.238281 74.472656 148.972656 72.949219 156.609375 C 72.507812 160.613281 71.667969 171.386719 72.496094 176.738281 C 67.996094 175.867188 63.949219 176.636719 62.429688 181.703125 C 62.050781 183.230469 61.882812 185.179688 62.007812 187.160156 C 53.707031 189.960938 51.875 202.636719 56.84375 207.152344 C 52.261719 207.152344 49.71875 211.726562 51.246094 215.800781 C 52.464844 217.9375 55.519531 220.066406 58.527344 221.769531 C 52.769531 231.769531 43.3125 241.035156 37.101562 248.707031 C 24.226562 264.175781 7.683594 279.152344 6.261719 300.191406 C 5.359375 313.671875 16.652344 338.058594 36.207031 344.398438 C 55.757812 350.734375 84.621094 331.714844 89.628906 313.914062 C 94.027344 297.507812 113.273438 203.269531 112.777344 189.167969 L 98.109375 193.804688 "/>
<path style=" stroke:none;fill-rule:nonzero;fill:rgb(77.648926%,48.239136%,32.939148%);fill-opacity:1;" d="M 228.203125 131.195312 C 227.917969 131.785156 227.046875 131.269531 227.324219 130.679688 C 228.632812 127.945312 229.746094 121.167969 225.617188 120.246094 C 221.691406 119.355469 217.644531 122.644531 215.515625 125.660156 C 215.140625 126.191406 214.257812 125.683594 214.632812 125.144531 C 216.878906 121.964844 222.292969 117.339844 226.539062 119.503906 C 230.609375 121.574219 229.875 127.691406 228.203125 131.195312 Z M 164.980469 144.222656 C 156.042969 139.507812 164.539062 125.945312 173.46875 130.660156 C 182.410156 135.378906 173.921875 148.941406 164.980469 144.222656 Z M 165.382812 120.132812 C 165.476562 119.871094 165.773438 119.734375 166.035156 119.835938 C 168.199219 120.628906 169.871094 120.113281 171.160156 118.246094 C 171.320312 118.011719 171.640625 117.953125 171.867188 118.113281 C 172.097656 118.273438 172.15625 118.585938 171.996094 118.816406 C 170.910156 120.402344 169.503906 121.203125 167.855469 121.203125 C 167.167969 121.203125 166.441406 121.066406 165.6875 120.789062 C 165.417969 120.6875 165.289062 120.394531 165.382812 120.132812 Z M 149.53125 161.457031 C 139.988281 162.585938 134.433594 158.429688 133.777344 152.828125 C 133.007812 146.273438 141.097656 151.285156 144.976562 151.246094 C 147.429688 151.21875 152.3125 148.78125 155.902344 149.027344 C 159.488281 149.285156 159.066406 160.328125 149.53125 161.457031 Z M 132.15625 127.171875 C 133.589844 124.828125 147.253906 109.027344 147.835938 108.351562 C 148.015625 108.140625 148.335938 108.121094 148.554688 108.300781 C 148.765625 108.492188 148.789062 108.808594 148.605469 109.023438 C 148.460938 109.191406 134.410156 125.429688 133.023438 127.703125 C 132.828125 128.027344 132.882812 128.644531 133.175781 129.355469 C 134.257812 132.011719 138.03125 135.515625 143.75 136.949219 C 144.027344 137.015625 144.195312 137.289062 144.121094 137.566406 C 144.0625 137.792969 143.859375 137.953125 143.625 137.953125 C 143.589844 137.953125 143.546875 137.945312 143.503906 137.9375 C 137.441406 136.417969 133.414062 132.621094 132.238281 129.742188 C 131.800781 128.6875 131.773438 127.800781 132.15625 127.171875 Z M 131.023438 117.386719 C 130.027344 117.386719 128.523438 117.386719 127.738281 116.597656 C 127.542969 116.394531 127.542969 116.078125 127.738281 115.878906 C 127.941406 115.683594 128.261719 115.683594 128.457031 115.878906 C 128.945312 116.367188 130.246094 116.367188 131.023438 116.367188 C 131.308594 116.367188 131.53125 116.59375 131.53125 116.875 C 131.53125 117.152344 131.308594 117.386719 131.023438 117.386719 Z M 236.679688 123.203125 C 236.199219 110.328125 228.511719 103.382812 220.871094 107.148438 C 221.402344 89.578125 214.988281 77.304688 201.136719 67.394531 C 194.398438 62.570312 186.378906 59.195312 178.09375 57.714844 C 164.1875 55.226562 147.335938 58.832031 136.679688 69.039062 C 123.761719 81.402344 120.046875 103.667969 121.144531 124.90625 C 121.523438 124.777344 121.921875 124.664062 122.34375 124.578125 C 132.253906 122.570312 134.25 138.445312 124.351562 140.460938 C 123.820312 140.5625 123.3125 140.621094 122.824219 140.628906 C 125.832031 159.238281 132.039062 174.585938 137.890625 177.871094 C 142.457031 180.429688 146.476562 181.378906 151.566406 181.269531 C 156.296875 181.167969 163.820312 184.882812 165.148438 193.820312 C 166.390625 202.210938 166.21875 223.820312 168.078125 226.394531 C 169.945312 228.96875 171.492188 231.0625 173.582031 233.675781 C 173.582031 233.675781 182.011719 226.269531 181.679688 222.394531 C 181.351562 218.527344 179.269531 214.25 180.988281 210.984375 C 180.996094 210.984375 180.996094 210.984375 180.996094 210.976562 C 181.109375 210.75 181.269531 210.511719 181.460938 210.261719 C 189.257812 198.378906 205.132812 188.136719 213.789062 177.398438 C 222.449219 166.660156 219.585938 154.371094 218.621094 152.03125 C 217.660156 149.691406 216.097656 144.699219 216.097656 144.699219 C 225.742188 142.15625 237.171875 135.785156 236.679688 123.203125 "/>
<path style=" stroke:none;fill-rule:nonzero;fill:rgb(7.058716%,6.669617%,5.879211%);fill-opacity:1;" d="M 178.6875 173.824219 C 170.878906 177.597656 161.046875 181.324219 151.5625 181.269531 C 155.875 186.246094 159.796875 191.28125 161.183594 193.777344 C 163.449219 197.839844 149.175781 199.65625 168.082031 226.390625 C 178.300781 205.421875 195.433594 171.378906 202.667969 156.347656 C 195.898438 163.535156 187.597656 169.367188 178.6875 173.824219 "/>
<path style=" stroke:none;fill-rule:nonzero;fill:rgb(7.058716%,6.669617%,5.879211%);fill-opacity:1;" d="M 213.027344 78.480469 C 223.550781 78.480469 232.078125 71.464844 232.078125 62.816406 C 232.078125 54.164062 223.550781 47.148438 213.027344 47.148438 C 202.507812 47.148438 193.976562 54.164062 193.976562 62.816406 C 193.976562 71.464844 202.507812 78.480469 213.027344 78.480469 "/>
<path style=" stroke:none;fill-rule:nonzero;fill:rgb(7.058716%,6.669617%,5.879211%);fill-opacity:1;" d="M 157.058594 107.96875 C 160.285156 109.789062 164.113281 107.339844 167.355469 106.351562 C 170.878906 105.269531 174.082031 106.421875 177.335938 107.539062 C 179.746094 108.367188 183.851562 110.152344 185.222656 106.34375 C 187.632812 99.65625 180.519531 94.558594 175.941406 93.757812 C 157.460938 90.515625 152.472656 105.375 157.058594 107.96875 "/>
<path style=" stroke:none;fill-rule:nonzero;fill:rgb(7.058716%,6.669617%,5.879211%);fill-opacity:1;" d="M 127.835938 101.308594 C 130 101.046875 132.140625 100.753906 134.039062 102.347656 C 135.785156 103.816406 137.597656 106.59375 139.878906 105.753906 C 143.132812 104.554688 143.054688 91.371094 131.367188 90.292969 C 128.472656 90.027344 123.21875 92.765625 123.347656 98.734375 C 123.425781 102.132812 126.234375 101.496094 127.835938 101.308594 "/>
<path style=" stroke:none;fill-rule:nonzero;fill:rgb(7.058716%,6.669617%,5.879211%);fill-opacity:1;" d="M 128.398438 110.71875 C 126.4375 114.773438 133.066406 117.390625 135.03125 113.339844 C 136.992188 109.285156 130.363281 106.664062 128.398438 110.71875 "/>
<path style=" stroke:none;fill-rule:nonzero;fill:rgb(7.058716%,6.669617%,5.879211%);fill-opacity:1;" d="M 163.59375 114.058594 C 161.636719 118.113281 168.265625 120.734375 170.226562 116.679688 C 172.1875 112.621094 165.558594 110.003906 163.59375 114.058594 "/>
<path style=" stroke:none;fill-rule:nonzero;fill:rgb(7.058716%,6.669617%,5.879211%);fill-opacity:1;" d="M 194.390625 260.257812 C 188.078125 256.925781 182.074219 266.480469 188.386719 269.816406 C 194.703125 273.148438 200.703125 263.59375 194.390625 260.257812 "/>
<path style=" stroke:none;fill-rule:nonzero;fill:rgb(7.058716%,6.669617%,5.879211%);fill-opacity:1;" d="M 228.335938 319.753906 C 222.023438 316.421875 216.023438 325.980469 222.332031 329.3125 C 228.648438 332.648438 234.648438 323.089844 228.335938 319.753906 "/>
<path style=" stroke:none;fill-rule:nonzero;fill:rgb(7.058716%,6.669617%,5.879211%);fill-opacity:1;" d="M 251.929688 168.394531 C 251.214844 185.914062 240.097656 202.285156 229.332031 215.394531 C 224.710938 221.027344 218.070312 229.953125 209.703125 227.28125 C 205.578125 225.960938 201.835938 222.605469 198.332031 220.15625 C 195.03125 217.851562 191.578125 215.855469 187.667969 214.800781 C 187.035156 214.625 186.765625 215.609375 187.398438 215.78125 C 192.03125 217.03125 195.910156 219.667969 199.777344 222.414062 C 203.277344 224.894531 207.085938 228.019531 211.429688 228.75 C 218.871094 229.992188 225.023438 222.140625 229.164062 217.179688 C 240.488281 203.625 252.199219 186.664062 252.945312 168.394531 C 252.972656 167.738281 251.957031 167.742188 251.929688 168.394531 "/>
<path style=" stroke:none;fill-rule:nonzero;fill:rgb(7.058716%,6.669617%,5.879211%);fill-opacity:1;" d="M 167.449219 232.660156 C 163.394531 230.839844 159.695312 228.085938 156.109375 225.492188 C 150.984375 221.785156 146.03125 217.824219 141.277344 213.648438 C 138.109375 210.863281 134.453125 207.875 132.226562 204.226562 C 130.976562 202.167969 132.289062 199.28125 133.09375 197.273438 C 133.851562 195.378906 134.796875 193.527344 135.828125 191.765625 C 136.160156 191.199219 135.28125 190.6875 134.949219 191.25 C 132.960938 194.644531 130.125 199.449219 130.820312 203.519531 C 131.0625 204.929688 132.410156 206.285156 133.304688 207.3125 C 135.027344 209.308594 136.972656 211.117188 138.914062 212.894531 C 143.617188 217.191406 148.617188 221.179688 153.71875 224.992188 C 157.867188 228.085938 162.191406 231.40625 166.9375 233.539062 C 167.527344 233.804688 168.046875 232.925781 167.449219 232.660156 "/>
<path style=" stroke:none;fill-rule:nonzero;fill:rgb(7.058716%,6.669617%,5.879211%);fill-opacity:1;" d="M 208.992188 310.007812 C 207.503906 302.058594 202.84375 295.953125 196.867188 290.707031 C 189.664062 284.386719 183.136719 277.648438 179.101562 268.820312 C 174.8125 259.433594 174.027344 248.878906 174.3125 238.699219 C 174.332031 238.042969 173.3125 238.042969 173.292969 238.699219 C 173.023438 248.34375 173.800781 258.019531 177.285156 267.09375 C 180.691406 275.972656 186.902344 283.300781 193.960938 289.527344 C 196.785156 292.015625 199.585938 294.433594 201.972656 297.371094 C 205.164062 301.304688 207.027344 305.335938 208.011719 310.277344 C 209.664062 318.558594 209.070312 328.164062 213.527344 335.628906 C 213.863281 336.195312 214.742188 335.683594 214.40625 335.121094 C 210.027344 327.78125 210.523438 318.1875 208.992188 310.007812 "/>
<path style=" stroke:none;fill-rule:nonzero;fill:rgb(7.058716%,6.669617%,5.879211%);fill-opacity:1;" d="M 301.378906 332.066406 C 294.847656 318.277344 289.484375 303.8125 284.984375 289.25 C 281.292969 277.308594 278.277344 265.050781 276.980469 252.597656 C 275.660156 239.910156 277.019531 227.226562 281.21875 215.171875 C 284.699219 205.195312 290.199219 194.734375 297.738281 187.15625 C 298.203125 186.691406 297.484375 185.972656 297.019531 186.4375 C 287.433594 196.074219 281.132812 209.835938 277.871094 222.828125 C 271.84375 246.851562 278.246094 272.082031 285.753906 295.023438 C 289.929688 307.773438 294.753906 320.441406 300.5 332.578125 C 300.78125 333.171875 301.65625 332.652344 301.378906 332.066406 "/>
<path style=" stroke:none;fill-rule:nonzero;fill:rgb(7.058716%,6.669617%,5.879211%);fill-opacity:1;" d="M 131.636719 290.238281 C 129.308594 282.675781 127.808594 274.71875 123.460938 267.96875 C 123.105469 267.417969 122.222656 267.925781 122.578125 268.480469 C 127.027344 275.382812 128.535156 283.613281 130.914062 291.351562 C 133.363281 299.308594 133.949219 307.714844 137.730469 315.25 C 138.023438 315.835938 138.902344 315.320312 138.609375 314.734375 C 134.753906 307.054688 134.136719 298.367188 131.636719 290.238281 "/>
<path style=" stroke:none;fill-rule:nonzero;fill:rgb(85.099792%,85.099792%,85.099792%);fill-opacity:1;" d="M 226.574219 57.429688 C 226.125 59.277344 223.980469 60.78125 222.582031 61.886719 C 220.476562 63.570312 218.128906 65 215.722656 66.214844 C 211.675781 68.25 206.980469 70.28125 202.347656 69.886719 C 201.929688 69.851562 201.914062 69.210938 202.347656 69.21875 C 206.957031 69.300781 211.8125 67.09375 215.773438 64.941406 C 218.035156 63.714844 220.28125 62.367188 222.265625 60.71875 C 223.609375 59.597656 224.691406 58.0625 226.082031 57.050781 C 226.335938 56.863281 226.640625 57.167969 226.574219 57.429688 Z M 169.125 126.609375 C 160.679688 128.765625 152.554688 121.066406 151.832031 113.042969 C 151.5 109.285156 153.039062 106.234375 155.496094 104.011719 C 158.019531 101.726562 161.5 100.308594 164.910156 99.871094 C 171.488281 99.21875 178.128906 101.132812 180.160156 108.089844 C 180.195312 108.214844 180.226562 108.339844 180.253906 108.46875 C 182.292969 116.324219 176.816406 124.644531 169.125 126.609375 Z M 130.347656 120.804688 C 126.945312 121.589844 123.636719 120.621094 120.972656 118.671875 C 117.585938 116.191406 115.222656 112.132812 114.976562 108.0625 C 114.664062 102.875 118.367188 99.285156 122.804688 97.554688 C 123.015625 97.472656 123.222656 97.390625 123.433594 97.320312 C 124.554688 96.933594 125.703125 96.664062 126.839844 96.519531 C 133.03125 95.910156 139.082031 97.800781 140.769531 104.414062 C 140.8125 104.558594 140.84375 104.710938 140.871094 104.859375 C 142.390625 111.953125 137.253906 119.210938 130.347656 120.804688 Z M 244.492188 80.445312 C 242.964844 72.308594 241.949219 61.109375 233.816406 56.027344 C 250.589844 30.585938 204.3125 24.480469 188.042969 27.023438 C 167.699219 30.585938 140.25 34.144531 126 51.953125 C 121.210938 57.945312 113.972656 68.324219 119.894531 75.867188 C 121.851562 78.214844 125.078125 79.355469 128.71875 79.871094 C 134.554688 80.710938 141.445312 79.9375 145.835938 79.9375 C 156.035156 79.9375 165.964844 77.277344 175.863281 75.121094 C 180.308594 74.15625 188.140625 70.730469 192.945312 72.769531 C 194.164062 73.285156 195.191406 74.148438 195.917969 75.496094 C 199.203125 81.597656 193.402344 96.164062 191.089844 102.328125 C 188.042969 109.453125 193.632812 108.941406 199.230469 110.46875 C 200.039062 110.726562 200.691406 110.992188 201.207031 111.285156 C 198.851562 111.917969 196.503906 112.578125 194.164062 113.246094 C 190.269531 114.367188 186.519531 115.144531 182.457031 114.511719 C 182.722656 112.898438 182.761719 111.261719 182.527344 109.652344 C 182.476562 109.3125 182.398438 108.992188 182.324219 108.664062 C 180.574219 100.359375 173.058594 97.023438 164.910156 97.835938 C 161.878906 98.222656 158.941406 99.210938 156.472656 100.765625 C 152.554688 103.238281 149.8125 107.144531 149.769531 112.382812 C 149.769531 112.511719 149.777344 112.644531 149.777344 112.765625 C 148.671875 112.234375 147.53125 111.828125 146.375 111.601562 C 145.976562 111.53125 145.574219 111.472656 145.175781 111.445312 C 144.289062 111.378906 143.394531 111.429688 142.5 111.648438 C 143.117188 109.574219 143.316406 107.402344 142.988281 105.277344 C 142.746094 103.757812 142.3125 102.402344 141.714844 101.21875 C 139.0625 95.9375 133.152344 93.859375 126.839844 94.484375 C 125.898438 94.609375 124.976562 94.789062 124.066406 95.039062 C 123.804688 95.101562 123.542969 95.191406 123.285156 95.269531 C 117.519531 97.089844 112.890625 101.4375 112.941406 108.0625 C 112.984375 113.523438 116.371094 118.402344 121.007812 121.007812 C 123.703125 122.527344 126.820312 123.277344 129.945312 122.921875 C 135.03125 122.339844 139.308594 118.730469 141.527344 114.171875 C 142.144531 113.84375 142.761719 113.640625 143.386719 113.53125 C 143.859375 113.441406 144.332031 113.414062 144.8125 113.429688 C 146.609375 113.503906 148.378906 114.257812 150.023438 115.195312 C 151.542969 123.320312 159.726562 129.625 168.035156 128.847656 C 174.695312 128.222656 180.136719 122.804688 181.996094 116.492188 C 189.027344 117.582031 196.023438 114.976562 202.800781 113.015625 C 203.519531 115.078125 201.601562 117.945312 201.265625 122.015625 C 200.757812 128.128906 202.386719 129.464844 208.492188 123.871094 C 208.847656 123.515625 209.1875 123.140625 209.515625 122.757812 C 215.867188 111.515625 235.921875 103.089844 236.679688 123.203125 C 236.730469 124.527344 236.648438 125.777344 236.453125 126.964844 C 246.832031 113.933594 245.785156 87.785156 244.492188 80.445312 "/>
<path style=" stroke:none;fill-rule:nonzero;fill:rgb(85.099792%,85.099792%,85.099792%);fill-opacity:1;" d="M 95.664062 157.457031 C 97.253906 158.09375 97.578125 160.234375 98.792969 160.628906 C 100.96875 161.328125 103.359375 159.679688 105.640625 160.324219 C 107.390625 160.816406 108.882812 162.054688 110.738281 162.222656 C 112.621094 162.386719 114.042969 161.316406 115.742188 160.726562 C 117.28125 160.191406 118.867188 160.71875 120.15625 161.585938 C 121.578125 162.542969 123.125 163.660156 124.917969 163.636719 C 126.648438 163.613281 128.175781 162.675781 129.832031 162.320312 C 131.695312 161.921875 133.601562 162.472656 135.457031 162.660156 C 136.246094 162.742188 137.027344 162.75 137.792969 162.535156 C 138.578125 162.316406 139.367188 161.820312 140.207031 162.117188 C 141.085938 162.429688 141.691406 163.308594 142.621094 163.523438 C 143.78125 163.785156 144.921875 162.964844 145.613281 162.222656 C 145.675781 162.023438 145.730469 161.820312 145.777344 161.621094 C 145.828125 161.394531 145.871094 161.171875 145.898438 160.945312 C 146.421875 156.683594 145.414062 155.398438 143.042969 155.398438 C 141.683594 155.398438 139.652344 156.078125 138.636719 155.738281 C 135.925781 155.0625 137.957031 154.382812 135.925781 153.023438 C 135.195312 152.476562 134.464844 152.304688 133.734375 152.324219 C 131.753906 152.367188 129.769531 153.859375 127.785156 153.363281 C 126.636719 153.097656 125.863281 152.742188 125.25 152.378906 C 123.523438 151.359375 123.160156 150.328125 119.648438 151.328125 C 118.292969 152.007812 117.277344 152.683594 115.582031 152.347656 C 114.226562 152.007812 113.210938 149.972656 111.515625 149.632812 C 107.785156 148.953125 106.765625 152.6875 103.714844 152.6875 C 102.019531 152.6875 102.019531 151.328125 99.988281 151.667969 C 99.832031 151.730469 99.652344 151.808594 99.464844 151.894531 C 98.578125 152.554688 97.492188 153.242188 96.289062 153.960938 C 94.722656 155.300781 92.964844 157.316406 91.367188 160.378906 C 91.363281 160.378906 91.363281 160.378906 91.363281 160.382812 C 91.820312 159.691406 92.140625 159.210938 92.296875 158.984375 C 92.542969 158.628906 94.074219 156.820312 95.664062 157.457031 "/>
<path style=" stroke:none;fill-rule:nonzero;fill:rgb(85.099792%,85.099792%,85.099792%);fill-opacity:1;" d="M 86.660156 161.433594 C 87.363281 160.375 88.074219 159.320312 88.789062 158.273438 C 87.65625 158.949219 86.570312 159.625 85.597656 160.296875 C 85 161.203125 84.402344 162.109375 83.816406 163.023438 C 80.804688 167.679688 77.859375 172.480469 75.273438 177.460938 C 75.773438 177.617188 76.277344 177.789062 76.777344 177.96875 C 79.726562 172.273438 83.101562 166.78125 86.660156 161.433594 "/>
<path style=" stroke:none;fill-rule:nonzero;fill:rgb(85.099792%,85.099792%,85.099792%);fill-opacity:1;" d="M 141.871094 145.953125 C 138.136719 142.585938 133.945312 139.546875 129.503906 137 C 126.609375 135.34375 123.609375 133.890625 120.550781 132.703125 C 119.121094 132.148438 117.550781 131.589844 115.964844 131.34375 C 114.988281 131.191406 114.007812 131.152344 113.046875 131.304688 C 111.574219 131.539062 110.152344 132.730469 108.980469 133.566406 C 106.757812 135.15625 104.734375 137.015625 102.769531 138.90625 C 100.726562 140.867188 98.8125 142.925781 96.976562 145.046875 C 97.527344 145.140625 98.058594 145.285156 98.554688 145.46875 C 101.460938 142.1875 104.585938 139.101562 107.9375 136.296875 C 110.042969 134.539062 112.328125 132.484375 115.210938 132.789062 C 115.425781 132.8125 115.640625 132.851562 115.851562 132.886719 C 118.414062 133.289062 120.957031 134.4375 123.265625 135.507812 C 125.050781 136.335938 126.808594 137.253906 128.527344 138.234375 C 133.058594 140.824219 137.335938 143.917969 141.183594 147.382812 C 142.359375 148.445312 143.765625 149.757812 145.082031 151.238281 C 147.730469 154.222656 150 157.878906 149.222656 161.484375 C 149.171875 161.714844 149.113281 161.949219 149.039062 162.179688 C 146.875 168.058594 143.566406 173.585938 139.859375 178.855469 C 136.433594 183.71875 132.667969 188.367188 129.136719 192.863281 C 123.144531 200.488281 116.707031 207.925781 109.617188 214.566406 C 108.996094 215.148438 108.378906 215.734375 107.746094 216.300781 C 104.253906 219.453125 100.320312 222.75 95.796875 224.28125 C 93.738281 224.976562 91.871094 224.570312 89.753906 224.425781 C 87.265625 224.261719 84.75 224.601562 82.476562 225.640625 C 79.914062 226.8125 77.632812 230.257812 78.667969 233.136719 C 79.691406 235.980469 83.246094 238.347656 83.523438 241.40625 C 83.601562 242.304688 76.90625 239.773438 76.539062 239.609375 C 73.589844 238.277344 70.816406 236.546875 68.15625 234.707031 C 64.441406 232.136719 59.546875 228.5625 56.960938 224.34375 C 56.488281 223.574219 56.082031 222.777344 55.785156 221.964844 C 55.464844 221.089844 56.359375 220.988281 57.457031 221.140625 C 56.707031 220.695312 55.976562 220.230469 55.285156 219.738281 C 52.964844 220.652344 54.792969 223.761719 56.125 225.617188 C 56.425781 226.03125 56.699219 226.386719 56.894531 226.636719 C 60.390625 231.101562 65.199219 234.6875 69.941406 237.722656 C 72.246094 239.199219 74.6875 240.53125 77.226562 241.5625 C 79.039062 242.300781 81.488281 243.46875 83.519531 243.09375 C 86.519531 242.539062 84.226562 238.988281 83.316406 237.605469 C 81.3125 234.554688 78.304688 231.675781 81.5 228.191406 C 85.125 224.238281 90.945312 226.988281 95.414062 225.976562 C 99.34375 225.082031 102.855469 222.324219 105.925781 219.863281 C 107.039062 218.96875 108.125 218.042969 109.191406 217.09375 C 116.171875 210.90625 122.289062 203.648438 128.179688 196.480469 C 132.675781 191.007812 137.152344 185.339844 141.183594 179.410156 C 143.714844 175.6875 146.070312 171.859375 148.140625 167.910156 C 149.042969 166.191406 149.835938 164.410156 150.507812 162.585938 C 150.65625 162.128906 150.757812 161.675781 150.824219 161.222656 C 151.359375 157.578125 149.355469 153.996094 146.808594 150.953125 C 145.207031 149.035156 143.394531 147.328125 141.871094 145.953125 "/>
<path style=" stroke:none;fill-rule:nonzero;fill:rgb(85.099792%,85.099792%,85.099792%);fill-opacity:1;" d="M 74.863281 229.238281 C 75.09375 229.226562 75.304688 228.898438 75.074219 228.71875 C 74.25 228.082031 73.214844 227.738281 72.332031 227.167969 C 71.894531 226.886719 71.488281 226.566406 71.097656 226.230469 C 70.746094 226.292969 70.386719 226.328125 70.007812 226.328125 C 69.921875 226.328125 69.832031 226.320312 69.742188 226.316406 C 71.113281 227.796875 73.015625 229.351562 74.863281 229.238281 "/>
<path style=" stroke:none;fill-rule:nonzero;fill:rgb(85.099792%,85.099792%,85.099792%);fill-opacity:1;" d="M 78.128906 222.273438 C 77.308594 221.457031 76.195312 221.09375 75.296875 220.4375 C 75.253906 220.777344 75.203125 221.125 75.136719 221.488281 C 75.125 221.542969 75.113281 221.59375 75.105469 221.652344 C 75.933594 222.261719 76.933594 222.664062 77.914062 222.792969 C 78.1875 222.832031 78.296875 222.445312 78.128906 222.273438 "/>
<path style=" stroke:none;fill-rule:nonzero;fill:rgb(85.099792%,85.099792%,85.099792%);fill-opacity:1;" d="M 94.488281 214.8125 C 94.457031 214.804688 94.425781 214.796875 94.390625 214.789062 C 93.90625 214.65625 93.410156 215.03125 93.410156 215.535156 C 93.410156 216.042969 93.90625 216.417969 94.390625 216.285156 C 94.835938 216.164062 95.199219 215.863281 95.304688 215.398438 C 95.394531 215 95.058594 214.671875 94.660156 214.757812 C 94.644531 214.761719 94.542969 214.796875 94.492188 214.816406 C 94.492188 214.816406 94.488281 214.816406 94.488281 214.8125 C 94.492188 214.8125 94.488281 214.8125 94.492188 214.8125 C 94.492188 214.8125 94.488281 214.8125 94.488281 214.8125 "/>
<path style=" stroke:none;fill-rule:nonzero;fill:rgb(85.099792%,85.099792%,85.099792%);fill-opacity:1;" d="M 131.171875 175.675781 C 126.851562 179.667969 123.078125 184.320312 119.167969 188.710938 C 115.757812 192.539062 112.324219 196.34375 108.917969 200.179688 C 105.609375 203.90625 102.273438 207.605469 98.984375 211.351562 C 98.644531 211.742188 99.195312 212.304688 99.558594 211.921875 C 102.988281 208.316406 106.34375 204.636719 109.71875 200.980469 C 113.191406 197.210938 116.617188 193.398438 120.054688 189.59375 C 124.019531 185.203125 128.242188 180.890625 131.714844 176.09375 C 131.953125 175.761719 131.445312 175.417969 131.171875 175.675781 "/>
<path style=" stroke:none;fill-rule:nonzero;fill:rgb(98.81897%,63.919067%,6.669617%);fill-opacity:1;" d="M 131.714844 176.09375 C 128.242188 180.890625 124.019531 185.203125 120.054688 189.59375 C 116.617188 193.398438 113.191406 197.210938 109.71875 200.980469 C 106.34375 204.636719 102.988281 208.316406 99.558594 211.921875 C 99.195312 212.304688 98.644531 211.742188 98.984375 211.351562 C 102.273438 207.605469 105.609375 203.90625 108.917969 200.179688 C 112.324219 196.34375 115.757812 192.539062 119.167969 188.710938 C 123.078125 184.320312 126.851562 179.667969 131.171875 175.675781 C 131.445312 175.417969 131.953125 175.761719 131.714844 176.09375 Z M 94.390625 216.285156 C 93.90625 216.417969 93.410156 216.042969 93.410156 215.535156 C 93.410156 215.03125 93.90625 214.65625 94.390625 214.789062 C 94.425781 214.796875 94.457031 214.804688 94.488281 214.8125 C 94.488281 214.8125 94.492188 214.8125 94.492188 214.8125 C 94.488281 214.8125 94.492188 214.8125 94.488281 214.8125 C 94.488281 214.816406 94.492188 214.816406 94.492188 214.816406 C 94.542969 214.796875 94.644531 214.761719 94.660156 214.757812 C 95.058594 214.671875 95.394531 215 95.304688 215.398438 C 95.199219 215.863281 94.835938 216.164062 94.390625 216.285156 Z M 145.613281 162.222656 C 144.921875 162.964844 143.78125 163.785156 142.621094 163.523438 C 141.691406 163.308594 141.085938 162.429688 140.207031 162.117188 C 139.367188 161.820312 138.578125 162.316406 137.792969 162.535156 C 137.027344 162.75 136.246094 162.742188 135.457031 162.660156 C 133.601562 162.472656 131.695312 161.921875 129.832031 162.320312 C 128.175781 162.675781 126.648438 163.613281 124.917969 163.636719 C 123.125 163.660156 121.578125 162.542969 120.15625 161.585938 C 118.867188 160.71875 117.28125 160.191406 115.742188 160.726562 C 114.042969 161.316406 112.621094 162.386719 110.738281 162.222656 C 108.882812 162.054688 107.390625 160.816406 105.640625 160.324219 C 103.359375 159.679688 100.96875 161.328125 98.792969 160.628906 C 97.578125 160.234375 97.253906 158.09375 95.664062 157.457031 C 94.074219 156.820312 92.542969 158.628906 92.296875 158.984375 C 92.140625 159.210938 91.820312 159.691406 91.363281 160.382812 C 90.296875 162.011719 88.503906 164.824219 86.441406 168.347656 C 84.550781 171.574219 82.4375 175.402344 80.457031 179.457031 C 82.261719 180.253906 83.9375 181.070312 85.316406 181.707031 C 88.878906 183.742188 92.4375 186.285156 95.488281 189.339844 C 99.554688 193.917969 99.046875 195.445312 92.945312 196.464844 C 91.058594 196.734375 89.0625 196.820312 87.039062 196.730469 C 91.582031 200.28125 95.21875 204.792969 94.980469 208.167969 C 94.207031 217.449219 82.226562 215.386719 76.53125 213.863281 C 80.769531 219.050781 87.972656 222.375 92.894531 221.417969 C 97.71875 220.480469 100.304688 220.726562 110.382812 209.84375 C 114.167969 205.753906 119.011719 200.101562 125.425781 192.21875 C 129.261719 187.363281 133.289062 182.394531 136.964844 177.242188 C 139.300781 173.972656 141.492188 170.628906 143.402344 167.1875 C 144.277344 165.617188 145.617188 163.683594 145.617188 162.222656 C 145.613281 162.222656 145.613281 162.222656 145.613281 162.222656 "/>
</g>
</svg>
