<?xml version="1.0" encoding="UTF-8"?>
<svg xmlns="http://www.w3.org/2000/svg" xmlns:xlink="http://www.w3.org/1999/xlink" width="375pt" height="374.999991pt" viewBox="0 0 375 374.999991" version="1.2">
<defs>
<clipPath id="clip1">
  <path d="M 84 91 L 324.5625 91 L 324.5625 334 L 84 334 Z M 84 91 "/>
</clipPath>
<clipPath id="clip2">
  <path d="M 56 29.414062 L 299 29.414062 L 299 313 L 56 313 Z M 56 29.414062 "/>
</clipPath>
</defs>
<g id="surface1">
<path style=" stroke:none;fill-rule:nonzero;fill:rgb(98.81897%,63.919067%,6.669617%);fill-opacity:1;" d="M 299.691406 93.589844 L 291.621094 93.667969 C 291.363281 93.667969 291.125 93.539062 290.980469 93.332031 L 276.871094 72.496094 C 276.582031 72.066406 276.777344 71.488281 277.273438 71.335938 C 279.800781 70.570312 286.921875 69.132812 293.769531 74.433594 C 301.101562 80.113281 300.699219 90.203125 300.449219 92.90625 C 300.410156 93.296875 300.082031 93.585938 299.691406 93.589844 Z M 319.015625 103.28125 C 318.984375 102.636719 318.230469 102.328125 317.746094 102.757812 C 315.832031 104.464844 311.683594 107.464844 306.105469 107.585938 C 299.816406 107.71875 295.785156 109.246094 294.445312 109.847656 C 294.140625 109.976562 293.972656 110.28125 294.003906 110.609375 C 294.363281 114.121094 296.472656 134.132812 298.445312 138.535156 C 300.613281 143.355469 318.425781 145.523438 319.257812 133.207031 C 319.9375 123.089844 319.277344 108.246094 319.015625 103.28125 Z M 75.648438 46.136719 C 68.855469 54.183594 68.289062 59.90625 68.289062 59.90625 C 68.019531 61.007812 69.191406 60.949219 69.789062 59.90625 C 70.386719 58.859375 71.886719 57.210938 76.824219 50.78125 C 81.761719 44.347656 89.996094 39.097656 89.359375 38.039062 C 88.722656 36.988281 82.441406 38.089844 75.648438 46.136719 Z M 75.648438 46.136719 "/>
<path style=" stroke:none;fill-rule:nonzero;fill:rgb(100%,100%,100%);fill-opacity:1;" d="M 322.949219 129.867188 C 322.757812 122.191406 323.136719 111.640625 323.136719 105.980469 C 323.136719 100.320312 323.136719 94.566406 321.214844 92.84375 C 319.292969 91.117188 315.363281 92.746094 307.011719 92.746094 C 304.761719 92.746094 302.527344 92.785156 300.441406 92.875 C 300.398438 93.3125 300.359375 93.585938 300.359375 93.585938 L 292.390625 93.660156 C 290.878906 93.96875 289.859375 94.371094 289.574219 94.875 C 288.566406 96.675781 290.402344 102.71875 290.402344 107.03125 C 290.402344 111.351562 291.460938 111.15625 291.167969 115.664062 C 290.878906 120.171875 292.976562 140.644531 293.992188 146.089844 C 295.003906 151.535156 298.941406 153.546875 304.410156 153.453125 C 309.878906 153.359375 321.78125 152.496094 322.644531 149.136719 C 323.519531 145.785156 323.136719 137.53125 322.949219 129.867188 Z M 319.257812 133.207031 C 318.425781 145.523438 300.613281 143.355469 298.445312 138.535156 C 296.277344 133.710938 293.945312 110.078125 293.945312 110.078125 C 293.945312 110.078125 298.273438 107.75 306.097656 107.585938 C 313.921875 107.421875 318.917969 101.597656 318.917969 101.597656 C 318.917969 101.597656 320.089844 120.902344 319.257812 133.207031 Z M 123.847656 226.46875 C 120.898438 229.238281 111.722656 233.695312 103.058594 237.542969 C 98.695312 221.449219 94.460938 204.125 90.234375 193.839844 C 93.996094 190.703125 100.289062 187.457031 110.296875 187.273438 C 129.90625 186.914062 148.445312 181.21875 163.058594 177.292969 C 174.804688 174.148438 189.773438 170.773438 203.714844 170.308594 C 209.515625 174.828125 214.957031 179.832031 219.390625 185.132812 C 221.253906 187.359375 222.832031 189.722656 224.171875 192.160156 C 218.65625 192.882812 210.898438 194.476562 203.347656 197.957031 C 189.445312 204.371094 168.765625 206.863281 157.71875 212.5625 C 146.664062 218.273438 129.90625 220.765625 123.847656 226.46875 Z M 134.988281 294.652344 C 130.59375 287.796875 123.222656 281.824219 116.355469 273.496094 C 114.058594 270.707031 111.820312 265.695312 109.625 259.445312 C 112.863281 259.449219 116.308594 259.492188 119.5625 259.601562 C 130.617188 259.960938 142.738281 256.75 157 256.75 C 171.261719 256.75 176.25 251.761719 193.003906 249.265625 C 209.761719 246.769531 212.964844 239.644531 221.878906 238.574219 C 224.480469 238.257812 227.472656 237.285156 230.414062 236.050781 C 229.835938 241.332031 229.109375 245.316406 229.011719 247.125 C 228.652344 253.539062 228.652344 260.664062 228.296875 268.144531 C 228.070312 272.902344 229.714844 275.929688 231.316406 279.429688 C 226.539062 282.75 218.988281 286.773438 209.761719 287.390625 C 193.714844 288.457031 178.382812 297.007812 163.410156 293.09375 C 151.878906 290.070312 144.136719 294.445312 134.988281 294.652344 Z M 138.265625 94.121094 C 139.117188 92.785156 140.808594 93.636719 143.480469 94.484375 C 146.144531 95.335938 148.9375 95.335938 151.847656 94.484375 C 154.757812 93.636719 157.0625 97.878906 149.539062 99.453125 C 142.019531 101.027344 137.070312 95.996094 138.265625 94.121094 Z M 307.195312 115.273438 C 305.625 115.273438 304.351562 116.542969 304.351562 118.113281 C 304.351562 119.679688 305.625 120.949219 307.195312 120.949219 C 308.761719 120.949219 310.035156 119.679688 310.035156 118.113281 C 310.035156 116.542969 308.761719 115.273438 307.195312 115.273438 Z M 307.195312 119.605469 C 306.367188 119.605469 305.703125 118.9375 305.703125 118.113281 C 305.703125 117.285156 306.367188 116.621094 307.195312 116.621094 C 308.019531 116.621094 308.6875 117.285156 308.6875 118.113281 C 308.6875 118.929688 308.019531 119.605469 307.195312 119.605469 Z M 312.421875 107.371094 C 310.578125 107.371094 309.070312 108.875 309.070312 110.722656 C 309.070312 112.566406 310.570312 114.070312 312.421875 114.070312 C 314.269531 114.070312 315.773438 112.566406 315.773438 110.722656 C 315.765625 108.875 314.269531 107.371094 312.421875 107.371094 Z M 312.421875 112.722656 C 311.320312 112.722656 310.417969 111.824219 310.417969 110.722656 C 310.417969 109.621094 311.320312 108.71875 312.421875 108.71875 C 313.523438 108.71875 314.425781 109.621094 314.425781 110.722656 C 314.425781 111.824219 313.523438 112.722656 312.421875 112.722656 Z M 250.648438 310.007812 C 255.515625 317.160156 261.820312 324.242188 265.738281 333.714844 L 144.167969 333.714844 C 144.167969 333.714844 142.636719 327.1875 141.144531 319.339844 C 145.769531 319.546875 150.605469 319.90625 154.503906 320.535156 C 165.558594 322.316406 181.957031 318.753906 195.144531 317.683594 C 208.335938 316.613281 220.101562 314.476562 232.222656 313.761719 C 238.414062 313.394531 245.34375 311.636719 250.648438 310.007812 Z M 250.648438 310.007812 "/>
<g clip-path="url(#clip1)" clip-rule="nonzero">
<path style=" stroke:none;fill-rule:nonzero;fill:rgb(7.839966%,12.939453%,23.919678%);fill-opacity:1;" d="M 110.304688 187.273438 C 100.292969 187.457031 94.003906 190.703125 90.242188 193.839844 C 89.679688 192.472656 89.121094 191.226562 88.558594 190.125 C 79.644531 172.667969 88.199219 162.691406 88.199219 158.414062 C 88.199219 154.140625 91.054688 153.78125 95.691406 153.429688 C 106.359375 152.609375 123.5 158.773438 137.753906 158.414062 C 152.015625 158.054688 149.164062 148.796875 157.71875 147.726562 C 164.445312 146.882812 187.644531 152.730469 205.875 172.027344 C 205.242188 171.359375 204.445312 170.875 203.714844 170.308594 C 189.773438 170.773438 174.804688 174.148438 163.058594 177.292969 C 148.445312 181.21875 129.90625 186.914062 110.304688 187.273438 Z M 103.058594 237.527344 C 101.605469 232.164062 100.167969 226.675781 98.738281 221.34375 C 100.164062 226.675781 101.605469 232.171875 103.058594 237.527344 Z M 193.011719 249.269531 C 209.765625 246.777344 212.972656 239.652344 221.886719 238.582031 C 224.488281 238.265625 227.480469 237.289062 230.414062 236.054688 C 231.679688 224.523438 232.230469 206.828125 224.132812 192.164062 C 218.621094 192.894531 210.882812 194.480469 203.347656 197.957031 C 189.445312 204.371094 168.765625 206.863281 157.71875 212.5625 C 146.664062 218.265625 129.90625 220.757812 123.847656 226.457031 C 120.898438 229.226562 111.722656 233.683594 103.058594 237.527344 C 105.214844 245.46875 107.398438 253.089844 109.625 259.4375 C 112.863281 259.445312 116.308594 259.488281 119.5625 259.59375 C 130.617188 259.953125 142.738281 256.742188 157 256.742188 C 171.265625 256.75 176.253906 251.761719 193.011719 249.269531 Z M 230.421875 236.054688 C 230.34375 236.691406 230.277344 237.320312 230.207031 237.914062 C 230.28125 237.316406 230.351562 236.699219 230.421875 236.054688 Z M 223.273438 190.601562 C 223.582031 191.121094 223.851562 191.648438 224.140625 192.171875 C 224.152344 192.171875 224.167969 192.164062 224.179688 192.164062 C 223.890625 191.636719 223.582031 191.121094 223.273438 190.601562 Z M 144.125 333.503906 C 144.097656 333.40625 144.074219 333.28125 144.035156 333.125 C 144.066406 333.28125 144.097656 333.402344 144.125 333.503906 Z M 144.148438 333.621094 C 144.160156 333.671875 144.167969 333.710938 144.167969 333.710938 C 144.167969 333.710938 144.160156 333.679688 144.148438 333.621094 Z M 144.148438 333.621094 C 144.144531 333.589844 144.128906 333.554688 144.125 333.503906 C 144.128906 333.554688 144.144531 333.589844 144.148438 333.621094 Z M 233.652344 286.324219 C 232.976562 282.785156 231.667969 280.207031 230.507812 277.675781 C 230.773438 278.253906 231.042969 278.839844 231.320312 279.4375 C 226.546875 282.753906 218.996094 286.777344 209.765625 287.394531 C 193.722656 288.464844 178.390625 297.015625 163.417969 293.097656 C 151.871094 290.078125 144.136719 294.453125 134.988281 294.660156 C 136.988281 297.777344 138.371094 301.074219 138.820312 304.859375 C 139.355469 309.410156 140.242188 314.617188 141.144531 319.339844 C 145.769531 319.546875 150.605469 319.90625 154.503906 320.535156 C 165.558594 322.316406 181.957031 318.753906 195.144531 317.683594 C 208.335938 316.613281 220.101562 314.476562 232.222656 313.761719 C 238.410156 313.394531 245.335938 311.636719 250.640625 310.007812 C 250.199219 309.359375 249.753906 308.710938 249.335938 308.0625 C 244.347656 300.21875 235.082031 293.808594 233.652344 286.324219 Z M 322.785156 150.054688 C 321.027344 152.6875 312.484375 154.152344 305.914062 154.152344 C 304.511719 154.152344 303.199219 154.082031 302.058594 153.953125 C 295.945312 153.222656 295.578125 152.441406 294.445312 147.859375 C 294.3125 147.328125 294.167969 146.742188 293.996094 146.09375 C 292.996094 142.285156 291.742188 129.261719 290.734375 118.796875 C 290.140625 112.621094 289.625 107.289062 289.285156 105 L 288.925781 102.617188 C 288.234375 98.066406 287.976562 96.367188 288.257812 94.640625 C 288.5625 92.835938 292.042969 92.601562 299.257812 92.28125 C 301.425781 92.1875 303.660156 92.085938 305.847656 91.917969 C 313.632812 91.292969 320.660156 91.550781 320.730469 91.550781 L 321.007812 91.621094 C 323.546875 92.890625 323.609375 98.46875 323.722656 109.59375 C 323.75 112.054688 323.78125 114.769531 323.835938 117.722656 C 323.878906 119.792969 323.925781 121.832031 323.976562 123.820312 C 324.289062 137.015625 324.535156 147.4375 322.785156 150.054688 Z M 322.632812 123.851562 C 322.589844 121.863281 322.539062 119.816406 322.496094 117.753906 C 322.429688 114.792969 322.40625 112.082031 322.382812 109.613281 C 322.285156 100.585938 322.21875 94.011719 320.523438 92.890625 C 320.082031 92.878906 318.777344 92.84375 316.917969 92.84375 C 314.160156 92.84375 310.167969 92.917969 305.960938 93.257812 C 303.753906 93.433594 301.5 93.535156 299.320312 93.628906 C 295.382812 93.800781 289.984375 94.039062 289.589844 94.875 C 289.34375 96.375 289.589844 98.023438 290.261719 102.417969 L 290.621094 104.796875 C 290.96875 107.121094 291.484375 112.472656 292.082031 118.664062 C 293.085938 129.085938 294.332031 142.046875 295.308594 145.75 C 295.484375 146.402344 295.628906 146.996094 295.761719 147.53125 C 296.800781 151.714844 296.855469 151.96875 302.230469 152.609375 C 308.679688 153.378906 320.03125 151.765625 321.675781 149.304688 C 323.175781 147.046875 322.910156 135.78125 322.632812 123.851562 Z M 322.632812 123.851562 "/>
</g>
<path style=" stroke:none;fill-rule:nonzero;fill:rgb(89.408875%,67.449951%,45.489502%);fill-opacity:1;" d="M 305.449219 180.511719 C 304.347656 187.117188 306.550781 193.441406 304.902344 201.417969 C 303.25 209.394531 303.800781 219.574219 302.425781 226.179688 C 301.050781 232.78125 301.878906 241.304688 296.644531 247.363281 C 291.414062 253.414062 289.210938 263.59375 280.402344 267.445312 C 271.597656 271.296875 265.539062 274.046875 257.835938 270.742188 C 250.125 267.445312 243.246094 265.242188 238.289062 258.089844 C 233.332031 250.9375 229.027344 247.128906 229.027344 247.128906 C 229.027344 247.128906 230.863281 229.753906 229.757812 222.878906 C 228.65625 216 229.484375 208.023438 226.183594 202.519531 C 222.882812 197.019531 222.054688 185.464844 214.347656 181.058594 C 206.636719 176.660156 205.261719 171.15625 198.65625 167.851562 C 192.046875 164.554688 186.269531 157.671875 179.386719 154.644531 C 172.5 151.617188 157.730469 147.710938 157.730469 147.710938 C 157.730469 147.710938 161.21875 144.464844 170.027344 144.1875 C 178.832031 143.910156 187.914062 147.214844 193.972656 151.894531 C 200.027344 156.570312 206.636719 157.671875 211.316406 163.175781 C 215.996094 168.675781 228.109375 177.476562 233.886719 187.386719 C 239.667969 197.289062 246.269531 201.417969 249.578125 208.847656 C 252.878906 216.277344 259.484375 226.179688 260.308594 225.902344 C 261.136719 225.625 261.683594 216.824219 264.992188 208.847656 C 268.292969 200.871094 268.566406 195.367188 271.042969 186.289062 C 273.519531 177.214844 274.34375 171.433594 278.199219 164.28125 C 282.054688 157.128906 283.15625 148.601562 285.078125 143.375 C 287.003906 138.148438 287.003906 124.394531 289.480469 118.890625 C 291.085938 115.328125 297.191406 110.917969 299.113281 112.011719 C 301.035156 113.105469 294.449219 122.007812 294.449219 122.007812 C 294.449219 122.007812 296.542969 130.878906 294.972656 138.1875 C 294.25 141.554688 295.3125 145.691406 295.863281 148.71875 C 296.410156 151.75 302.242188 152.800781 307.75 153.347656 C 307.75 153.347656 306.546875 161.800781 306.546875 165.378906 C 306.546875 168.960938 306.546875 173.914062 305.449219 180.511719 Z M 247.871094 314.554688 C 233.304688 310.636719 214.546875 305.59375 201.382812 306.4375 C 188.222656 307.277344 178.699219 305.316406 165.816406 306.160156 C 152.9375 307 142.574219 304.765625 132.496094 305.042969 C 132.496094 305.042969 130.8125 278.457031 128.015625 266.417969 C 125.214844 254.382812 128.292969 240.109375 126.058594 228.078125 C 123.816406 216.042969 124.097656 190.578125 120.457031 183.023438 C 116.816406 175.46875 118.777344 170.425781 112.054688 165.113281 C 105.335938 159.792969 103.375 153.636719 93.851562 153.078125 C 83.445312 152.464844 71.726562 160.070312 68.925781 168.753906 C 66.121094 177.425781 61.644531 183.582031 61.367188 193.664062 C 61.089844 203.734375 63.609375 228.644531 63.609375 233.964844 C 63.609375 239.285156 69.769531 260.273438 71.167969 270.070312 C 72.566406 279.867188 80.691406 294.421875 82.367188 303.933594 C 84.050781 313.453125 90.488281 316.246094 95.25 325.480469 C 100.011719 334.71875 107.292969 339.195312 115.128906 340.3125 C 122.972656 341.433594 212.859375 338.355469 227.140625 335.839844 C 241.417969 333.320312 268.863281 334.15625 268.863281 334.15625 C 268.863281 334.15625 262.433594 318.476562 247.871094 314.554688 Z M 81.453125 72.320312 C 87.644531 59.230469 90.378906 49.882812 110.386719 42.402344 C 130.390625 34.925781 141.1875 49.453125 143.632812 51.898438 C 146.078125 54.339844 151.980469 64.265625 155.292969 69.730469 C 158.605469 75.195312 164.363281 82.390625 164.9375 98.210938 C 165.507812 114.03125 147.808594 121.082031 147.808594 121.082031 C 147.808594 121.082031 147.375 125.113281 147.519531 131.148438 C 147.664062 137.191406 150.542969 139.636719 153.847656 145.101562 C 157.164062 150.566406 165.796875 151.714844 170.402344 153.875 C 175.007812 156.035156 178.605469 162.074219 183.5 165.527344 C 188.394531 168.980469 190.554688 174.59375 193.859375 178.617188 C 197.175781 182.644531 197.894531 190.414062 199.046875 195.015625 C 200.199219 199.617188 202.453125 204.71875 199.617188 205.808594 C 197.746094 206.523438 195.730469 206.242188 189.402344 206.667969 C 183.070312 207.105469 174.71875 200.480469 164.789062 198.328125 C 154.855469 196.167969 152.703125 190.269531 146.945312 186.964844 C 141.1875 183.652344 138.019531 178.769531 132.261719 170.421875 C 126.503906 162.078125 116.859375 156.035156 116.859375 156.035156 C 116.859375 156.035156 114.554688 143.230469 112.828125 136.042969 C 111.105469 128.851562 106.636719 113.460938 89.65625 111.589844 C 72.671875 109.71875 75.269531 85.414062 81.453125 72.320312 Z M 149.535156 99.453125 C 157.050781 97.878906 154.75 93.636719 151.839844 94.484375 C 148.929688 95.335938 146.140625 95.335938 143.476562 94.484375 C 140.808594 93.636719 139.109375 92.792969 138.257812 94.121094 C 137.070312 95.996094 142.019531 101.027344 149.535156 99.453125 Z M 149.535156 99.453125 "/>
<g clip-path="url(#clip2)" clip-rule="nonzero">
<path style=" stroke:none;fill-rule:nonzero;fill:rgb(7.839966%,12.939453%,23.919678%);fill-opacity:1;" d="M 292.492188 75.914062 C 286.742188 71.285156 279.074219 73.050781 278.753906 73.132812 C 278.394531 73.21875 278.167969 73.578125 278.257812 73.941406 C 278.34375 74.300781 278.703125 74.523438 279.070312 74.441406 C 279.105469 74.433594 281.101562 73.980469 283.738281 74.144531 C 283.730469 74.207031 283.71875 74.277344 283.730469 74.339844 L 285.605469 85.558594 C 285.644531 85.792969 285.808594 85.992188 286.035156 86.074219 C 286.109375 86.105469 286.191406 86.117188 286.273438 86.117188 C 286.425781 86.117188 286.578125 86.066406 286.695312 85.96875 L 286.746094 85.921875 C 286.746094 85.929688 286.742188 85.929688 286.742188 85.9375 C 286.628906 86.289062 286.824219 86.667969 287.175781 86.78125 L 296.976562 89.882812 C 297.007812 89.890625 297.035156 89.890625 297.066406 89.894531 C 297.109375 90.707031 297.132812 91.546875 297.128906 92.414062 C 297.128906 92.539062 298.476562 92.46875 298.476562 92.308594 C 298.53125 84.664062 296.515625 79.148438 292.492188 75.914062 Z M 285.078125 74.269531 C 287.214844 74.566406 289.59375 75.304688 291.65625 76.964844 C 292.308594 77.492188 292.882812 78.117188 293.425781 78.777344 L 286.742188 84.191406 Z M 287.578125 85.496094 C 287.484375 85.464844 287.390625 85.457031 287.296875 85.46875 L 294.222656 79.855469 C 295.679688 82.097656 296.574219 84.980469 296.933594 88.453125 Z M 155.304688 83.425781 C 155.328125 83.296875 155.304688 83.261719 155.285156 83.242188 C 154.628906 82.296875 153.671875 82.027344 151.933594 81.542969 C 151.246094 81.351562 150.46875 81.132812 149.566406 80.832031 C 146 79.640625 145.167969 76.984375 145.132812 76.871094 C 145.023438 76.519531 145.226562 76.140625 145.585938 76.035156 C 145.9375 75.925781 146.316406 76.128906 146.421875 76.488281 C 146.449219 76.570312 147.121094 78.59375 149.996094 79.558594 C 150.871094 79.847656 151.632812 80.0625 152.300781 80.25 C 154.203125 80.78125 155.460938 81.132812 156.394531 82.480469 C 156.640625 82.832031 156.714844 83.253906 156.621094 83.707031 C 156.230469 85.578125 152.660156 87.851562 151.945312 88.285156 C 151.839844 88.351562 151.714844 88.386719 151.59375 88.386719 C 151.367188 88.386719 151.148438 88.273438 151.019531 88.0625 C 150.824219 87.75 150.925781 87.332031 151.242188 87.136719 C 152.808594 86.167969 155.101562 84.382812 155.304688 83.425781 Z M 134.5625 68.964844 C 128.433594 67.207031 125.308594 74.21875 125.183594 74.523438 C 125.074219 74.773438 124.824219 74.925781 124.566406 74.925781 C 124.476562 74.925781 124.390625 74.90625 124.300781 74.867188 C 123.960938 74.722656 123.804688 74.328125 123.949219 73.988281 C 123.984375 73.90625 127.65625 65.589844 134.933594 67.671875 C 135.292969 67.773438 135.5 68.144531 135.394531 68.503906 C 135.292969 68.855469 134.921875 69.058594 134.5625 68.964844 Z M 150.726562 64.046875 C 150.542969 64.367188 150.125 64.480469 149.804688 64.296875 C 148.128906 63.34375 146.71875 63.101562 145.605469 63.582031 C 143.933594 64.296875 143.40625 66.402344 143.398438 66.421875 C 143.324219 66.730469 143.046875 66.929688 142.746094 66.929688 C 142.695312 66.929688 142.636719 66.925781 142.582031 66.910156 C 142.222656 66.824219 142 66.457031 142.089844 66.097656 C 142.113281 65.984375 142.792969 63.324219 145.070312 62.339844 C 146.59375 61.6875 148.40625 61.949219 150.46875 63.128906 C 150.800781 63.308594 150.914062 63.726562 150.726562 64.046875 Z M 260.730469 235.84375 C 261.992188 240.382812 261.511719 243.894531 261.496094 244.039062 C 261.445312 244.371094 261.160156 244.617188 260.828125 244.617188 C 260.796875 244.617188 260.761719 244.617188 260.730469 244.613281 C 260.367188 244.5625 260.109375 244.222656 260.160156 243.851562 C 260.164062 243.816406 260.617188 240.457031 259.433594 236.199219 C 258.164062 231.625 259.585938 225.976562 259.648438 225.738281 C 259.742188 225.378906 260.113281 225.160156 260.46875 225.253906 C 260.828125 225.347656 261.046875 225.710938 260.953125 226.070312 C 260.941406 226.128906 259.554688 231.617188 260.730469 235.84375 Z M 133.167969 305.007812 C 133.1875 305.382812 132.898438 305.695312 132.527344 305.714844 C 123.828125 306.125 119.457031 312.125 119.414062 312.179688 C 119.28125 312.363281 119.074219 312.464844 118.863281 312.464844 C 118.730469 312.464844 118.59375 312.425781 118.472656 312.335938 C 118.171875 312.125 118.101562 311.703125 118.316406 311.398438 C 118.503906 311.128906 123.085938 304.808594 132.46875 304.367188 C 132.835938 304.328125 133.152344 304.636719 133.167969 305.007812 Z M 134.308594 135.378906 C 139.128906 129.492188 139.179688 128.933594 137.039062 128.757812 C 137.039062 128.757812 133.039062 127.453125 129.824219 126.03125 C 126.613281 124.601562 120.054688 121.53125 118.808594 116.179688 C 117.558594 110.828125 108.097656 108.328125 107.917969 100.660156 C 107.742188 92.988281 105.238281 89.421875 105.238281 89.421875 C 105.238281 89.421875 112.199219 86.035156 123.445312 72.300781 C 134.6875 58.5625 128.621094 43.046875 128.621094 43.046875 C 137.371094 53.570312 146.113281 56.246094 146.113281 56.246094 C 146.113281 56.246094 148.078125 57.675781 151.292969 64.097656 C 154.503906 70.519531 159.148438 75.160156 159.148438 75.160156 C 159.324219 64.097656 152.363281 44.652344 142.902344 37.160156 C 133.441406 29.667969 107.386719 29.835938 89.359375 38.039062 C 71.332031 46.242188 64.898438 69.792969 65.082031 80.679688 C 65.257812 91.5625 64.1875 103.160156 65.792969 121.355469 C 67.402344 139.546875 77.398438 144.546875 77.398438 144.546875 L 76.863281 140.976562 C 82.394531 145.433594 89.710938 148.292969 105.421875 148.46875 C 121.132812 148.652344 129.492188 141.273438 134.308594 135.378906 Z M 88.105469 100.660156 C 84.183594 91.207031 92.390625 89.421875 92.390625 89.421875 C 92.390625 89.421875 100.246094 103.335938 100.246094 105.300781 C 100.246094 107.265625 91.109375 107.894531 88.105469 100.660156 Z M 183.605469 93.34375 C 183.605469 93.34375 185.570312 101.019531 180.929688 108.152344 C 176.285156 115.292969 166.769531 131.324219 147.519531 131.15625 L 147.652344 126.617188 C 141.800781 126.15625 134.09375 121.707031 139.183594 121.355469 C 143.71875 121.039062 147.007812 120.976562 151.554688 119.152344 C 154.625 117.394531 158.207031 114.359375 160.046875 111.539062 C 162.757812 107.390625 163.703125 105.910156 164.15625 101.191406 C 164.613281 96.394531 163.621094 88.699219 163.621094 88.699219 C 163.621094 88.699219 167.367188 93.691406 174.511719 93.691406 C 181.640625 93.703125 183.605469 93.34375 183.605469 93.34375 Z M 169.054688 154.066406 C 169.292969 154.347656 169.261719 154.769531 168.980469 155.015625 L 164.824219 158.546875 C 161 161.796875 160.464844 163.003906 160.4375 163.054688 C 160.332031 163.3125 160.074219 163.476562 159.808594 163.476562 C 159.734375 163.476562 159.652344 163.464844 159.574219 163.433594 C 159.234375 163.304688 159.050781 162.949219 159.171875 162.601562 C 159.253906 162.363281 159.851562 161.003906 163.953125 157.519531 L 168.109375 153.988281 C 168.394531 153.75 168.816406 153.78125 169.054688 154.066406 Z M 150.644531 166.011719 C 150.53125 166.257812 150.285156 166.402344 150.03125 166.402344 C 149.9375 166.402344 149.84375 166.386719 149.75 166.339844 C 147.285156 165.195312 133.332031 164.34375 128.167969 164.117188 C 127.796875 164.101562 127.507812 163.785156 127.527344 163.417969 C 127.542969 163.046875 127.898438 162.765625 128.226562 162.777344 C 128.992188 162.808594 147.117188 163.632812 150.316406 165.125 C 150.65625 165.277344 150.800781 165.671875 150.644531 166.011719 Z M 150.164062 72.726562 C 150.972656 72.726562 151.625 73.382812 151.625 74.1875 C 151.625 74.996094 150.972656 75.648438 150.164062 75.648438 C 149.359375 75.648438 148.703125 74.996094 148.703125 74.1875 C 148.703125 73.382812 149.359375 72.726562 150.164062 72.726562 Z M 132.125 78.742188 C 132.929688 78.742188 133.585938 79.394531 133.585938 80.199219 C 133.585938 81.007812 132.929688 81.660156 132.125 81.660156 C 131.316406 81.660156 130.664062 81.007812 130.664062 80.199219 C 130.664062 79.394531 131.316406 78.742188 132.125 78.742188 Z M 68.378906 59.386719 C 65.277344 58.5625 61.378906 56.8125 58.765625 53.074219 C 53.820312 46.023438 59.117188 29.449219 74.292969 29.800781 C 82.902344 30 86.398438 34.175781 87.808594 37.746094 C 85.429688 38.027344 80.679688 40.175781 75.648438 46.136719 C 70.046875 52.773438 68.679688 57.820312 68.378906 59.386719 Z M 68.378906 59.386719 "/>
</g>
<path style=" stroke:none;fill-rule:nonzero;fill:rgb(88.238525%,39.608765%,39.608765%);fill-opacity:1;" d="M 128.195312 94.097656 C 127.78125 94.097656 127.367188 94.136719 126.960938 94.21875 C 126.554688 94.300781 126.160156 94.417969 125.777344 94.578125 C 125.394531 94.738281 125.027344 94.933594 124.683594 95.164062 C 124.339844 95.394531 124.019531 95.65625 123.726562 95.949219 C 123.433594 96.242188 123.171875 96.5625 122.941406 96.90625 C 122.710938 97.25 122.515625 97.613281 122.355469 98 C 122.195312 98.382812 122.078125 98.777344 121.996094 99.183594 C 121.914062 99.589844 121.875 100 121.875 100.417969 C 121.875 100.832031 121.914062 101.242188 121.996094 101.648438 C 122.078125 102.054688 122.195312 102.453125 122.355469 102.835938 C 122.515625 103.21875 122.710938 103.582031 122.941406 103.925781 C 123.171875 104.273438 123.433594 104.589844 123.726562 104.886719 C 124.019531 105.179688 124.339844 105.441406 124.683594 105.671875 C 125.027344 105.902344 125.394531 106.097656 125.777344 106.253906 C 126.160156 106.414062 126.554688 106.535156 126.960938 106.613281 C 127.367188 106.695312 127.78125 106.734375 128.195312 106.734375 C 128.609375 106.734375 129.019531 106.695312 129.425781 106.613281 C 129.835938 106.535156 130.230469 106.414062 130.613281 106.253906 C 130.996094 106.097656 131.359375 105.902344 131.707031 105.671875 C 132.050781 105.441406 132.371094 105.179688 132.664062 104.886719 C 132.957031 104.589844 133.21875 104.273438 133.449219 103.925781 C 133.679688 103.582031 133.875 103.21875 134.03125 102.835938 C 134.191406 102.453125 134.3125 102.054688 134.390625 101.648438 C 134.472656 101.242188 134.515625 100.832031 134.515625 100.417969 C 134.515625 100 134.472656 99.589844 134.390625 99.183594 C 134.3125 98.777344 134.191406 98.382812 134.03125 98 C 133.875 97.613281 133.679688 97.25 133.449219 96.90625 C 133.21875 96.5625 132.957031 96.242188 132.664062 95.949219 C 132.371094 95.65625 132.050781 95.394531 131.707031 95.164062 C 131.359375 94.933594 130.996094 94.738281 130.613281 94.578125 C 130.230469 94.417969 129.835938 94.300781 129.425781 94.21875 C 129.019531 94.136719 128.609375 94.097656 128.195312 94.097656 Z M 128.195312 94.097656 "/>
<path style=" stroke:none;fill-rule:nonzero;fill:rgb(88.238525%,39.608765%,39.608765%);fill-opacity:1;" d="M 163.75 77.429688 C 163.335938 77.429688 162.925781 77.472656 162.515625 77.550781 C 162.109375 77.632812 161.714844 77.753906 161.332031 77.910156 C 160.949219 78.070312 160.585938 78.265625 160.238281 78.496094 C 159.894531 78.726562 159.574219 78.988281 159.28125 79.28125 C 158.988281 79.574219 158.726562 79.894531 158.496094 80.238281 C 158.265625 80.585938 158.070312 80.949219 157.910156 81.332031 C 157.753906 81.714844 157.632812 82.109375 157.550781 82.515625 C 157.472656 82.925781 157.429688 83.335938 157.429688 83.75 C 157.429688 84.164062 157.472656 84.574219 157.550781 84.984375 C 157.632812 85.390625 157.753906 85.785156 157.910156 86.167969 C 158.070312 86.550781 158.265625 86.914062 158.496094 87.261719 C 158.726562 87.605469 158.988281 87.925781 159.28125 88.21875 C 159.574219 88.511719 159.894531 88.773438 160.238281 89.003906 C 160.585938 89.234375 160.949219 89.429688 161.332031 89.589844 C 161.714844 89.746094 162.109375 89.867188 162.515625 89.949219 C 162.925781 90.027344 163.335938 90.070312 163.75 90.070312 C 164.164062 90.070312 164.574219 90.027344 164.984375 89.949219 C 165.390625 89.867188 165.785156 89.746094 166.167969 89.589844 C 166.550781 89.429688 166.914062 89.234375 167.261719 89.003906 C 167.605469 88.773438 167.925781 88.511719 168.21875 88.21875 C 168.511719 87.925781 168.773438 87.605469 169.003906 87.261719 C 169.234375 86.914062 169.429688 86.550781 169.589844 86.167969 C 169.746094 85.785156 169.867188 85.390625 169.949219 84.984375 C 170.027344 84.574219 170.070312 84.164062 170.070312 83.75 C 170.070312 83.335938 170.027344 82.925781 169.949219 82.515625 C 169.867188 82.109375 169.746094 81.714844 169.589844 81.332031 C 169.429688 80.949219 169.234375 80.585938 169.003906 80.238281 C 168.773438 79.894531 168.511719 79.574219 168.21875 79.28125 C 167.925781 78.988281 167.605469 78.726562 167.261719 78.496094 C 166.914062 78.265625 166.550781 78.070312 166.167969 77.910156 C 165.785156 77.753906 165.390625 77.632812 164.984375 77.550781 C 164.574219 77.472656 164.164062 77.429688 163.75 77.429688 Z M 163.75 77.429688 "/>
</g>
</svg>
